<?xml version="1.0" standalone="no"?>
<!DOCTYPE svg PUBLIC "-//W3C//DTD SVG 1.1//EN" "http://www.w3.org/Graphics/SVG/1.1/DTD/svg11.dtd" >
<svg>
<metadata>
Created by FontForge 20090622 at Tue Dec 11 04:48:05 2012
 By ffonts
Created by Nate Halley, generated by FontStruct. Licensed under Creative Commons (CC BY-SA) Attribution ShareAlike. For more information, visit http://creativecommons.org/licenses/by-sa/3.0/
</metadata>
<defs>
<font id="Skyline-Beach-NBP" horiz-adv-x="384" >
  <font-face 
    font-family="Skyline Beach NBP"
    font-weight="400"
    font-stretch="normal"
    units-per-em="800"
    panose-1="0 0 4 0 0 0 0 0 0 0"
    ascent="640"
    descent="-160"
    x-height="384"
    cap-height="512"
    bbox="-64 -192 512 672"
    underline-thickness="51"
    underline-position="127"
    unicode-range="U+0020-U+2122"
  />
<missing-glyph horiz-adv-x="128" 
d="M256 72v82h-82v-82h82zM337 167v82h-163v-82h163zM256 262v82h-82v-82h82zM337 357v81h-81q-34 0 -58 -23q-24 -24 -24 -58h163zM0 0v512h512v-512h-512z" />
    <glyph glyph-name=".notdef" horiz-adv-x="128" 
d="M256 72v82h-82v-82h82zM337 167v82h-163v-82h163zM256 262v82h-82v-82h82zM337 357v81h-81q-34 0 -58 -23q-24 -24 -24 -58h163zM0 0v512h512v-512h-512z" />
    <glyph glyph-name="glyph1" horiz-adv-x="0" 
 />
    <glyph glyph-name="glyph2" horiz-adv-x="128" 
 />
    <glyph glyph-name="space" unicode=" " horiz-adv-x="128" 
 />
    <glyph glyph-name="exclam" unicode="!" horiz-adv-x="128" 
d="M0 0v64h64v-64h-64zM0 192v320h64v-320h-64z" />
    <glyph glyph-name="quotedbl" unicode="&#x22;" horiz-adv-x="256" 
d="M0 384v128h64v-128h-64zM128 384v128h64v-128h-64z" />
    <glyph glyph-name="numbersign" unicode="#" horiz-adv-x="448" 
d="M224 192v96h-96v-96h96zM96 64v96h-96v32h96v96h-96v32h96v128h32v-128h96v128h32v-128h96v-32h-96v-96h96v-32h-96v-96h-32v96h-96v-96h-32z" />
    <glyph glyph-name="dollar" unicode="$" 
d="M128 64v64h-64l-64 64h256v64h-192l-64 64v64l64 64h64v64h64v-64h64l64 -64h-256v-64h192l64 -64v-64l-64 -64h-64v-64h-64z" />
    <glyph glyph-name="percent" unicode="%" horiz-adv-x="512" 
d="M384 64v64h-64v-64h64zM320 0l-64 64v64l64 64h64l64 -64v-64l-64 -64h-64zM128 384v64h-64v-64h64zM64 320l-64 64v64l64 64h64l64 -64v-64l-64 -64h-64zM64 0l256 512h64l-256 -512h-64z" />
    <glyph glyph-name="ampersand" unicode="&#x26;" 
d="M192 64v192h-128v-192h128zM64 0l-64 64v192l32 32l-32 32v128l64 64h128l32 -64h-160v-128h256v-64h-64v-192l-64 -64h-128z" />
    <glyph glyph-name="quotesingle" unicode="'" horiz-adv-x="128" 
d="M0 384v128h64v-64l-32 -64h-32z" />
    <glyph glyph-name="parenleft" unicode="(" horiz-adv-x="192" 
d="M64 0l-64 64v384l64 64h64l-64 -64v-384l64 -64h-64z" />
    <glyph glyph-name="parenright" unicode=")" horiz-adv-x="192" 
d="M0 0l64 64v384l-64 64h64l64 -64v-384l-64 -64h-64z" />
    <glyph glyph-name="asterisk" unicode="*" horiz-adv-x="320" 
d="M64 256l32 64q0 13 -10 22q-9 10 -22 10l-64 -32v32l64 32q26 0 45 -19t19 -45l-32 -64h-32zM160 256l-32 64q0 26 18 45q19 19 46 19l64 -32v-32l-64 32q-14 0 -23 -10q-9 -9 -9 -22l32 -64h-32zM64 384l-64 32v32l64 -32q13 0 22 9q10 9 10 23l-32 64h32l32 -64
q0 -27 -19 -46q-19 -18 -45 -18v0zM192 384q-27 0 -46 18q-18 19 -18 46l32 64h32l-32 -64q0 -14 9 -23t23 -9l64 32v-32l-64 -32v0z" />
    <glyph glyph-name="plus" unicode="+" 
d="M128 160v96h-96v64h96v96h64v-96h96v-64h-96v-96h-64z" />
    <glyph glyph-name="comma" unicode="," horiz-adv-x="128" 
d="M0 -64v128h64v-64l-32 -64h-32z" />
    <glyph glyph-name="hyphen" unicode="-" 
d="M32 256v64h256v-64h-256z" />
    <glyph glyph-name="period" unicode="." horiz-adv-x="128" 
d="M0 0v64h64v-64h-64z" />
    <glyph glyph-name="slash" unicode="/" 
d="M0 0l256 512h64l-256 -512h-64z" />
    <glyph glyph-name="zero" unicode="0" horiz-adv-x="320" 
d="M192 64v384h-128v-384h128zM64 0l-64 64v384l64 64h128l64 -64v-384l-64 -64h-128z" />
    <glyph glyph-name="one" unicode="1" horiz-adv-x="192" 
d="M64 0v448l-64 -32v64l64 32h64v-512h-64z" />
    <glyph glyph-name="two" unicode="2" horiz-adv-x="320" 
d="M0 0v128l192 192v128h-128v-64h-64v64l64 64h128l64 -64v-128l-192 -192v-64h192v-64h-256z" />
    <glyph glyph-name="three" unicode="3" horiz-adv-x="320" 
d="M64 0l-64 64v64h64v-64h128v192h-128v64h128v128h-128v-64h-64v64l64 64h128l64 -64v-128l-32 -32l32 -32v-192l-64 -64h-128z" />
    <glyph glyph-name="four" unicode="4" horiz-adv-x="320" 
d="M192 0v256h-192v256h64v-192h128v128h64v-448h-64z" />
    <glyph glyph-name="five" unicode="5" horiz-adv-x="320" 
d="M64 0l-64 64v64h64v-64h128v192h-192v256h256v-64h-192v-128h128l64 -64v-192l-64 -64h-128z" />
    <glyph glyph-name="six" unicode="6" horiz-adv-x="320" 
d="M192 64v192h-128v-192h128zM64 0l-64 64v384l64 64h128l64 -64h-192v-128h128l64 -64v-192l-64 -64h-128z" />
    <glyph glyph-name="seven" unicode="7" horiz-adv-x="320" 
d="M0 0l192 384v64h-192v64h256v-128l-192 -384h-64z" />
    <glyph glyph-name="eight" unicode="8" horiz-adv-x="320" 
d="M192 64v192h-128v-192h128zM192 320v128h-128v-128h128zM64 0l-64 64v192l32 32l-32 32v128l64 64h128l64 -64v-128l-32 -32l32 -32v-192l-64 -64h-128z" />
    <glyph glyph-name="nine" unicode="9" horiz-adv-x="320" 
d="M192 320v128h-128v-128h128zM192 0v256h-128l-64 64v128l64 64h128l64 -64v-384l-64 -64v0z" />
    <glyph glyph-name="colon" unicode=":" horiz-adv-x="128" 
d="M0 128v64h64v-64h-64zM0 352v64h64v-64h-64z" />
    <glyph glyph-name="semicolon" unicode=";" horiz-adv-x="128" 
d="M0 64v128h64v-64l-32 -64h-32zM0 352v64h64v-64h-64z" />
    <glyph glyph-name="less" unicode="&#x3c;" horiz-adv-x="256" 
d="M192 64l-192 192l192 192v-64l-128 -128l128 -128v-64v0z" />
    <glyph glyph-name="equal" unicode="=" 
d="M32 192v64h256v-64h-256zM32 320v64h256v-64h-256z" />
    <glyph glyph-name="greater" unicode="&#x3e;" horiz-adv-x="256" 
d="M0 64v64l128 128l-128 128v64l192 -192l-192 -192v0z" />
    <glyph glyph-name="question" unicode="?" 
d="M128 0v64h64v-64h-64zM128 192l128 128v128h-192v-64h-64v64l64 64h192l64 -64v-128l-128 -128h-64z" />
    <glyph glyph-name="at" unicode="@" horiz-adv-x="512" 
d="M256 192v64h-64v-64h64zM64 0l-64 64v320l64 64h320l64 -64v-192l-64 -64h-128v32l-32 -32h-32l-64 64v64l64 64h32l32 -32v32h64v-128h64v192h-320v-320h384v-64h-384z" />
    <glyph glyph-name="A" unicode="A" 
d="M256 320v128h-192v-128h192zM0 0v448l64 64h192l64 -64v-448h-64v256h-192v-256h-64z" />
    <glyph glyph-name="B" unicode="B" 
d="M256 64v192h-192v-192h192zM256 320v128h-192v-128h192zM0 0v512h256l64 -64v-128l-32 -32l32 -32v-192l-64 -64h-256z" />
    <glyph glyph-name="C" unicode="C" 
d="M64 0l-64 64v384l64 64h192l64 -64v-64h-64v64h-192v-384h192v64h64v-64l-64 -64h-192z" />
    <glyph glyph-name="D" unicode="D" 
d="M192 64l64 64v256l-64 64h-128v-384h128zM0 0v512h192l128 -128v-256l-128 -128h-192z" />
    <glyph glyph-name="E" unicode="E" 
d="M0 0v512h320v-64h-256v-128h128v-64h-128v-192h256v-64h-320z" />
    <glyph glyph-name="F" unicode="F" 
d="M0 0v512h320v-64h-256v-128h128v-64h-128v-256h-64z" />
    <glyph glyph-name="G" unicode="G" 
d="M64 0l-64 64v384l64 64h192l64 -64h-256v-384h192v256l64 -64v-192l-64 -64h-192z" />
    <glyph glyph-name="H" unicode="H" 
d="M0 0v512h64v-192h192v192h64v-512h-64v256h-192v-256h-64z" />
    <glyph glyph-name="I" unicode="I" horiz-adv-x="128" 
d="M0 0v512h64v-512h-64z" />
    <glyph glyph-name="J" unicode="J" 
d="M64 0l-64 64v128h64v-128h128v384h-64v64h192v-64h-64v-384l-64 -64h-128z" />
    <glyph glyph-name="K" unicode="K" 
d="M0 0v512h64v-192h64l192 192v-64l-128 -128h64l64 -64v-256h-64v256h-192v-256h-64z" />
    <glyph glyph-name="L" unicode="L" 
d="M0 0v512h64v-448h256v-64h-320z" />
    <glyph glyph-name="M" unicode="M" 
d="M0 0v448l64 64h192l64 -64v-448h-64v448h-64v-192h-64v192h-64v-448h-64z" />
    <glyph glyph-name="N" unicode="N" 
d="M0 0v512h64l192 -384v384h64v-512h-64l-192 384v-384h-64z" />
    <glyph glyph-name="O" unicode="O" 
d="M256 64v384h-192v-384h192zM64 0l-64 64v384l64 64h192l64 -64v-384l-64 -64h-192z" />
    <glyph glyph-name="P" unicode="P" 
d="M256 320v128h-192v-128h192zM0 0v512h256l64 -64v-128l-64 -64h-192v-256h-64z" />
    <glyph glyph-name="Q" unicode="Q" 
d="M256 64v384h-192v-384h192zM320 -128l-128 128h-128l-64 64v384l64 64h192l64 -64v-384l-64 -64l64 -64v-64v0z" />
    <glyph glyph-name="R" unicode="R" 
d="M256 320v128h-192v-128h192zM0 0v512h256l64 -64v-128l-64 -64h-64l128 -256h-64l-128 256h-64v-256h-64z" />
    <glyph glyph-name="S" unicode="S" 
d="M64 0l-64 64h256v192h-192l-64 64v128l64 64h192l64 -64h-256v-128h192l64 -64v-192l-64 -64h-192z" />
    <glyph glyph-name="T" unicode="T" 
d="M128 0v448h-128v64h320v-64h-128v-448h-64z" />
    <glyph glyph-name="U" unicode="U" 
d="M64 0l-64 64v448h64v-448h192v448h64v-448l-64 -64h-192z" />
    <glyph glyph-name="V" unicode="V" 
d="M128 0l-128 256v256h64v-256l96 -192l96 192v256h64v-256l-128 -256h-64z" />
    <glyph glyph-name="W" unicode="W" 
d="M0 0v512h64v-384l64 128h64l64 -128v384h64v-512h-64l-96 192l-96 -192h-64z" />
    <glyph glyph-name="X" unicode="X" 
d="M0 0l128 256l-128 256h64l96 -192l96 192h64l-128 -256l128 -256h-64l-96 192l-96 -192h-64z" />
    <glyph glyph-name="Y" unicode="Y" 
d="M128 0v256l-128 256h64l96 -192l96 192h64l-128 -256v-256h-64z" />
    <glyph glyph-name="Z" unicode="Z" 
d="M0 0l224 448h-224v64h320l-224 -448h224v-64h-320z" />
    <glyph glyph-name="bracketleft" unicode="[" horiz-adv-x="192" 
d="M0 0v512h128v-64h-64v-384h64v-64h-128z" />
    <glyph glyph-name="backslash" unicode="\" 
d="M256 0l-256 512h64l256 -512h-64z" />
    <glyph glyph-name="bracketright" unicode="]" horiz-adv-x="192" 
d="M0 0v64h64v384h-64v64h128v-512h-128z" />
    <glyph glyph-name="asciicircum" unicode="^" horiz-adv-x="320" 
d="M0 384l128 128l128 -128h-64l-64 64l-64 -64h-64z" />
    <glyph glyph-name="underscore" unicode="_" 
d="M0 0v64h320v-64h-320z" />
    <glyph glyph-name="grave" unicode="`" horiz-adv-x="192" 
d="M64 448l-64 64h64l64 -64h-64z" />
    <glyph glyph-name="a" unicode="a" 
d="M256 64v128h-192v-128h192zM64 0l-64 64v128l64 64h192v64h-192v64h192l64 -64v-320h-256z" />
    <glyph glyph-name="b" unicode="b" 
d="M256 64v256h-192v-256h192zM0 0v512h64v-128h192l64 -64v-256l-64 -64h-256z" />
    <glyph glyph-name="c" unicode="c" 
d="M64 0l-64 64v256l64 64h192l64 -64v-64h-64v64h-192v-256h256l-64 -64h-192z" />
    <glyph glyph-name="d" unicode="d" 
d="M256 64v256h-192v-256h192zM64 0l-64 64v256l64 64h192v128h64v-512h-256z" />
    <glyph glyph-name="e" unicode="e" 
d="M256 256v64h-192v-64h192zM64 0l-64 64v256l64 64h192l64 -64v-64l-64 -64h-192v-128h256l-64 -64h-192z" />
    <glyph glyph-name="f" unicode="f" 
d="M64 0v320h-64v64h64v64l64 64h192v-64h-192v-64h128v-64h-128v-320h-64z" />
    <glyph glyph-name="g" unicode="g" 
d="M256 64v256h-192v-256h192zM0 -192v64h256v128h-192l-64 64v256l64 64h192l64 -64v-448l-64 -64h-256z" />
    <glyph glyph-name="h" unicode="h" 
d="M0 0v512h64v-128h192l64 -64v-320h-64v320h-192v-320h-64z" />
    <glyph glyph-name="i" unicode="i" horiz-adv-x="128" 
d="M0 0v384h64v-384h-64zM0 448v64h64v-64h-64z" />
    <glyph glyph-name="j" unicode="j" horiz-adv-x="256" 
d="M0 -192l-64 64v64h64v-64h128v448h-64v64h128v-512l-64 -64h-128zM128 448v64h64v-64h-64z" />
    <glyph glyph-name="k" unicode="k" 
d="M0 0v512h64v-256h64l128 128h64l-128 -128h64l64 -64v-192h-64v192h-192v-192h-64z" />
    <glyph glyph-name="l" unicode="l" horiz-adv-x="128" 
d="M0 0v512l64 -64v-448h-64z" />
    <glyph glyph-name="m" unicode="m" 
d="M0 0v384h64v-32l32 32h160l64 -64v-320h-64v320h-64v-192h-64v192h-64v-320h-64z" />
    <glyph glyph-name="n" unicode="n" 
d="M0 0v384h64v-32l32 32h160l64 -64v-320h-64v320h-192v-320h-64z" />
    <glyph glyph-name="o" unicode="o" 
d="M256 64v256h-192v-256h192zM64 0l-64 64v256l64 64h192l64 -64v-256l-64 -64h-192z" />
    <glyph glyph-name="p" unicode="p" 
d="M256 64v256h-192v-256h192zM64 -192l-64 64v512h256l64 -64v-256l-64 -64h-192v-192v0z" />
    <glyph glyph-name="q" unicode="q" 
d="M256 64v256h-192v-256h192zM320 -192l-64 64v128h-192l-64 64v256l64 64h160l32 -32v32h64v-576v0z" />
    <glyph glyph-name="r" unicode="r" 
d="M0 0v384h64v-32l32 32h160l64 -64v-64h-64v64h-192v-320h-64z" />
    <glyph glyph-name="s" unicode="s" 
d="M64 0l-64 64h256v128h-192l-64 64v64l64 64h192l64 -64h-256v-64h192l64 -64v-128l-64 -64h-192z" />
    <glyph glyph-name="t" unicode="t" horiz-adv-x="320" 
d="M128 0l-64 64v256h-64v64h64v128h64v-128h128v-64h-128v-256h128v-64h-128z" />
    <glyph glyph-name="u" unicode="u" 
d="M64 0l-64 64v320h64v-320h192v320h64v-384h-64v32l-32 -32h-160z" />
    <glyph glyph-name="v" unicode="v" 
d="M128 0l-128 256v128h64v-128l96 -192l96 192v128h64v-128l-128 -256h-64z" />
    <glyph glyph-name="w" unicode="w" 
d="M0 0v384h64v-256l64 128h64l64 -128v256h64v-384h-64l-96 192l-96 -192h-64z" />
    <glyph glyph-name="x" unicode="x" 
d="M0 0l112 224l-80 160h64l64 -128l64 128h64l-80 -160l112 -224h-64l-96 192l-96 -192h-64z" />
    <glyph glyph-name="y" unicode="y" 
d="M0 -192v64h256v128h-192l-64 64v320h64v-320h192v320h64v-512l-64 -64h-256z" />
    <glyph glyph-name="z" unicode="z" 
d="M0 0v64l256 256h-256v64h320v-64l-256 -256h256v-64h-320z" />
    <glyph glyph-name="braceleft" unicode="{" horiz-adv-x="192" 
d="M64 0l-64 64v192l-32 32l32 32v128l64 64h64v-64h-64v-128l-32 -32l32 -32v-192h64v-64h-64z" />
    <glyph glyph-name="bar" unicode="|" horiz-adv-x="128" 
d="M0 -64v640h64v-640h-64z" />
    <glyph glyph-name="braceright" unicode="}" horiz-adv-x="256" 
d="M0 0v64h64v192l32 32l-32 32v128h-64v64h64l64 -64v-128l32 -32l-32 -32v-192l-64 -64h-64z" />
    <glyph glyph-name="asciitilde" unicode="~" 
d="M0 256l128 128l64 -64l64 64h64l-128 -128l-64 64l-64 -64h-64z" />
    <glyph glyph-name="exclamdown" unicode="&#xa1;" horiz-adv-x="128" 
d="M0 0v320h64v-320h-64zM0 448v64h64v-64h-64z" />
    <glyph glyph-name="cent" unicode="&#xa2;" 
d="M128 64v64h-64l-64 64v192l64 64h64v64h64v-64h64l64 -64v-32h-64v32h-192v-192h256l-64 -64h-64v-64h-64z" />
    <glyph glyph-name="sterling" unicode="&#xa3;" 
d="M0 0v64h64v224h-64v64h64v96l64 64h64l64 -64h-128v-96h64v-64h-64v-224h192v-64h-320z" />
    <glyph glyph-name="currency" unicode="&#xa4;" 
d="M256 192v192h-192v-192h192zM0 64l64 64l-64 64v192l64 64l-64 64h64l64 -64h64l64 64h64l-64 -64l64 -64v-192l-64 -64l64 -64h-64l-64 64h-64l-64 -64h-64z" />
    <glyph glyph-name="yen" unicode="&#xa5;" 
d="M128 0v96h-64v32h64v32h-64v32h64v64l-128 256h64l96 -192l96 192h64l-128 -256v-64h64v-32h-64v-32h64v-32h-64v-96h-64z" />
    <glyph glyph-name="brokenbar" unicode="&#xa6;" horiz-adv-x="128" 
d="M0 -64v256h64v-256h-64zM0 320v256h64v-256h-64z" />
    <glyph glyph-name="section" unicode="&#xa7;" 
d="M192 256v64h-64v-64h64zM64 64l-64 64h256v128l-64 -64h-64l-128 128v128l64 64h192l64 -64h-256v-128l64 64h64l128 -128v-128l-64 -64h-192z" />
    <glyph glyph-name="dieresis" unicode="&#xa8;" horiz-adv-x="256" 
d="M0 448v64h64v-64h-64zM128 448v64h64v-64h-64z" />
    <glyph glyph-name="copyright" unicode="&#xa9;" 
d="M0 32v64l128 64l-128 64v64l160 -80l160 80v-64l-128 -64l128 -64v-64l-160 80l-160 -80v0zM96 339q5 0 9 3q3 4 3 10q0 5 -3 9q-4 3 -9 3q-6 0 -10 -3q-3 -4 -3 -9q0 -6 3 -10q4 -3 10 -3v0zM224 339q5 0 9 3q3 4 3 10q0 5 -3 9q-4 3 -9 3q-6 0 -10 -3q-3 -4 -3 -9
q0 -6 3 -10q4 -3 10 -3v0zM179 396v39h-39v-39h39zM96 390q10 0 18 7q7 8 7 19q0 10 -7 18q-8 7 -18 7q-11 0 -19 -7q-7 -8 -7 -18q0 -11 7 -19q8 -7 19 -7v0zM224 390q10 0 18 7q7 8 7 19q0 10 -7 18q-8 7 -18 7q-11 0 -19 -7q-7 -8 -7 -18q0 -11 7 -19q8 -7 19 -7v0z
M0 320v192h320v-192h-320z" />
    <glyph glyph-name="ordfeminine" unicode="&#xaa;" horiz-adv-x="256" 
d="M128 256v64h-64v-64h64zM64 192l-64 64v64l64 64h64v64h-96v64h96l64 -64v-256h-128z" />
    <glyph glyph-name="guillemotleft" unicode="&#xab;" horiz-adv-x="320" 
d="M64 64l-64 128l64 128h64l-64 -128l64 -128h-64zM192 64l-64 128l64 128h64l-64 -128l64 -128h-64z" />
    <glyph glyph-name="logicalnot" unicode="&#xac;" 
d="M256 128v128h-256v64h320v-192h-64z" />
    <glyph glyph-name="sfthyphen" unicode="&#xad;" horiz-adv-x="256" 
d="M0 256v64h192v-64h-192z" />
    <glyph glyph-name="registered" unicode="&#xae;" 
d="M256 64v384h-192v-384h192zM0 0v512h320v-512h-320z" />
    <glyph glyph-name="macron" unicode="&#xaf;" 
d="M0 448v64h320v-64h-320z" />
    <glyph glyph-name="degree" unicode="&#xb0;" horiz-adv-x="256" 
d="M128 384v64h-64v-64h64zM64 352l-32 32v64l32 32h64l32 -32v-64l-32 -32h-64z" />
    <glyph glyph-name="plusminus" unicode="&#xb1;" 
d="M0 128v64h320v-64h-320zM128 224v96h-96v64h96v96h64v-96h96v-64h-96v-96h-64z" />
    <glyph glyph-name="twosuperior" unicode="&#xb2;" horiz-adv-x="256" 
d="M0 192v64l128 128v64h-64v-32h-64v32l64 64h64l64 -64v-64l-128 -128h128v-64h-192z" />
    <glyph glyph-name="threesuperior" unicode="&#xb3;" horiz-adv-x="256" 
d="M64 192l-64 64h128v64h-64v64h64v64h-128l64 64h64l64 -64v-64l-32 -32l32 -32v-64l-64 -64h-64z" />
    <glyph glyph-name="acute" unicode="&#xb4;" horiz-adv-x="192" 
d="M0 448l64 64h64l-64 -64h-64z" />
    <glyph glyph-name="mu" unicode="&#xb5;" 
d="M0 -128v512h64v-320h192v320h64v-416h-64v64l-32 -32h-160v-128h-64z" />
    <glyph glyph-name="paragraph" unicode="&#xb6;" 
d="M128 320v128h-64v-128h64zM128 0v256h-64l-64 64v128l64 64h256v-512h-64v448h-64v-448h-64z" />
    <glyph glyph-name="periodcentered" unicode="&#xb7;" horiz-adv-x="128" 
d="M0 256v64h64v-64h-64z" />
    <glyph glyph-name="cedilla" unicode="&#xb8;" horiz-adv-x="192" 
d="M0 0l64 64l-64 64h64l64 -64l-64 -64h-64z" />
    <glyph glyph-name="onesuperior" unicode="&#xb9;" horiz-adv-x="192" 
d="M64 192v256l-64 -32v64l64 32h64v-320h-64z" />
    <glyph glyph-name="ordmasculine" unicode="&#xba;" horiz-adv-x="256" 
d="M128 256v192h-64v-192h64zM64 192l-64 64v192l64 64h64l64 -64v-192l-64 -64h-64z" />
    <glyph glyph-name="guillemotright" unicode="&#xbb;" horiz-adv-x="320" 
d="M0 64l64 128l-64 128h64l64 -128l-64 -128h-64zM128 64l64 128l-64 128h64l64 -128l-64 -128h-64z" />
    <glyph glyph-name="onequarter" unicode="&#xbc;" horiz-adv-x="448" 
d="M320 0v128h-128v192h64v-128h64v64h64v-256h-64zM64 192v256l-64 -32v64l64 32h64v-320h-64z" />
    <glyph glyph-name="onehalf" unicode="&#xbd;" horiz-adv-x="448" 
d="M192 0v64l128 128v64h-64v-32h-64v32l64 64h64l64 -64v-64l-128 -128h128v-64h-192zM64 192v256l-64 -32v64l64 32h64v-320h-64z" />
    <glyph glyph-name="threequarters" unicode="&#xbe;" horiz-adv-x="512" 
d="M384 0v128h-128v192h64v-128h64v64h64v-256h-64zM64 192l-64 64h128v64h-64v64h64v64h-128l64 64h64l64 -64v-64l-32 -32l32 -32v-64l-64 -64h-64z" />
    <glyph glyph-name="questiondown" unicode="&#xbf;" 
d="M64 0l-64 64v128l128 128h64l-128 -128v-128h192v64h64v-64l-64 -64h-192zM128 448v64h64v-64h-64z" />
    <glyph glyph-name="Agrave" unicode="&#xc0;" 
d="M256 320v128h-192v-128h192zM0 0v448l64 64h192l64 -64v-448h-64v256h-192v-256h-64zM128 576l-64 64h64l64 -64h-64z" />
    <glyph glyph-name="Aacute" unicode="&#xc1;" 
d="M256 320v128h-192v-128h192zM0 0v448l64 64h192l64 -64v-448h-64v256h-192v-256h-64zM128 576l64 64h64l-64 -64h-64z" />
    <glyph glyph-name="Acircumflex" unicode="&#xc2;" 
d="M256 320v128h-192v-128h192zM0 0v448l64 64h192l64 -64v-448h-64v256h-192v-256h-64zM64 576l64 64h64l64 -64h-64l-32 32l-32 -32h-64z" />
    <glyph glyph-name="Atilde" unicode="&#xc3;" 
d="M256 320v128h-192v-128h192zM0 0v448l64 64h192l64 -64v-448h-64v256h-192v-256h-64zM64 512v64l64 64l64 -64l64 64v-64l-64 -64l-64 64l-64 -64v0z" />
    <glyph glyph-name="Adieresis" unicode="&#xc4;" 
d="M256 320v128h-192v-128h192zM0 0v448l64 64h192l64 -64v-448h-64v256h-192v-256h-64zM64 576v64h64v-64h-64zM192 576v64h64v-64h-64z" />
    <glyph glyph-name="Aring" unicode="&#xc5;" 
d="M256 320v128h-192v-128h192zM0 0v448l64 64h192l64 -64v-448h-64v256h-192v-256h-64zM192 576v64h-64v-64h64zM128 544l-32 32v64l32 32h64l32 -32v-64l-32 -32h-64z" />
    <glyph glyph-name="AE" unicode="&#xc6;" 
d="M128 320v128h-64v-128h64zM0 0v448l64 64h256v-64h-128v-128h96v-64h-96v-192h128v-64h-192v256h-64v-256h-64z" />
    <glyph glyph-name="Ccedilla" unicode="&#xc7;" 
d="M128 -128l64 64l-64 64h-64l-64 64v384l64 64h192l64 -64v-64h-64v64h-192v-384h192v64h64v-64l-64 -64h-64l64 -64l-64 -64h-64z" />
    <glyph glyph-name="Egrave" unicode="&#xc8;" 
d="M0 0v512h320v-64h-256v-128h128v-64h-128v-192h256v-64h-320zM128 576l-64 64h64l64 -64h-64z" />
    <glyph glyph-name="Eacute" unicode="&#xc9;" 
d="M0 0v512h320v-64h-256v-128h128v-64h-128v-192h256v-64h-320zM128 576l64 64h64l-64 -64h-64z" />
    <glyph glyph-name="Ecircumflex" unicode="&#xca;" 
d="M0 0v512h320v-64h-256v-128h128v-64h-128v-192h256v-64h-320zM64 576l64 64h64l64 -64h-64l-32 32l-32 -32h-64z" />
    <glyph glyph-name="Edieresis" unicode="&#xcb;" 
d="M0 0v512h320v-64h-256v-128h128v-64h-128v-192h256v-64h-320zM64 576v64h64v-64h-64zM192 576v64h64v-64h-64z" />
    <glyph glyph-name="Igrave" unicode="&#xcc;" horiz-adv-x="128" 
d="M0 0v512h64v-512h-64zM0 576l-64 64h64l64 -64h-64z" />
    <glyph glyph-name="Iacute" unicode="&#xcd;" horiz-adv-x="192" 
d="M0 0v512h64v-512h-64zM0 576l64 64h64l-64 -64h-64z" />
    <glyph glyph-name="Icircumflex" unicode="&#xce;" horiz-adv-x="192" 
d="M0 0v512h64v-512h-64zM-64 576l64 64h64l64 -64h-64l-32 32l-32 -32h-64z" />
    <glyph glyph-name="Idieresis" unicode="&#xcf;" horiz-adv-x="192" 
d="M0 0v512h64v-512h-64zM-64 576v64h64v-64h-64zM64 576v64h64v-64h-64z" />
    <glyph glyph-name="Eth" unicode="&#xd0;" 
d="M192 64l64 64v256l-64 64h-128v-160h64v-64h-64v-160h128zM0 0v224h-64v64h64v224h192l128 -128v-256l-128 -128h-192z" />
    <glyph glyph-name="Ntilde" unicode="&#xd1;" 
d="M0 0v512h64l192 -384v384h64v-512h-64l-192 384v-384h-64zM64 512v64l64 64l64 -64l64 64v-64l-64 -64l-64 64l-64 -64v0z" />
    <glyph glyph-name="Ograve" unicode="&#xd2;" 
d="M256 64v384h-192v-384h192zM64 0l-64 64v384l64 64h192l64 -64v-384l-64 -64h-192zM128 576l-64 64h64l64 -64h-64z" />
    <glyph glyph-name="Oacute" unicode="&#xd3;" 
d="M256 64v384h-192v-384h192zM64 0l-64 64v384l64 64h192l64 -64v-384l-64 -64h-192zM128 576l64 64h64l-64 -64h-64z" />
    <glyph glyph-name="Ocircumflex" unicode="&#xd4;" 
d="M256 64v384h-192v-384h192zM64 0l-64 64v384l64 64h192l64 -64v-384l-64 -64h-192zM64 576l64 64h64l64 -64h-64l-32 32l-32 -32h-64z" />
    <glyph glyph-name="Otilde" unicode="&#xd5;" 
d="M256 64v384h-192v-384h192zM64 0l-64 64v384l64 64h192l64 -64v-384l-64 -64h-192zM64 512v64l64 64l64 -64l64 64v-64l-64 -64l-64 64l-64 -64v0z" />
    <glyph glyph-name="Odieresis" unicode="&#xd6;" 
d="M256 64v384h-192v-384h192zM64 0l-64 64v384l64 64h192l64 -64v-384l-64 -64h-192zM64 576v64h64v-64h-64zM192 576v64h64v-64h-64z" />
    <glyph glyph-name="multiply" unicode="&#xd7;" 
d="M32 128l80 160l-80 160h64l64 -128l64 128h64l-80 -160l80 -160h-64l-64 128l-64 -128h-64z" />
    <glyph glyph-name="Oslash" unicode="&#xd8;" 
d="M256 64v256l-192 -192v-64h192zM64 192l192 192v64h-192v-256v0zM64 0l-64 64v384l64 64h192l64 -64v-384l-64 -64h-192z" />
    <glyph glyph-name="Ugrave" unicode="&#xd9;" 
d="M64 0l-64 64v448h64v-448h192v448h64v-448l-64 -64h-192zM128 576l-64 64h64l64 -64h-64z" />
    <glyph glyph-name="Uacute" unicode="&#xda;" 
d="M64 0l-64 64v448h64v-448h192v448h64v-448l-64 -64h-192zM128 576l64 64h64l-64 -64h-64z" />
    <glyph glyph-name="Ucircumflex" unicode="&#xdb;" 
d="M64 0l-64 64v448h64v-448h192v448h64v-448l-64 -64h-192zM64 576l64 64h64l64 -64h-64l-32 32l-32 -32h-64z" />
    <glyph glyph-name="Udieresis" unicode="&#xdc;" 
d="M64 0l-64 64v448h64v-448h192v448h64v-448l-64 -64h-192zM64 576v64h64v-64h-64zM192 576v64h64v-64h-64z" />
    <glyph glyph-name="Yacute" unicode="&#xdd;" 
d="M128 0v256l-128 256h64l96 -192l96 192h64l-128 -256v-256h-64zM128 576l64 64h64l-64 -64h-64z" />
    <glyph glyph-name="Thorn" unicode="&#xde;" horiz-adv-x="320" 
d="M192 192v128h-128v-128h128zM0 0v512h64v-128h128l64 -64v-128l-64 -64h-128v-128h-64z" />
    <glyph glyph-name="germandbls" unicode="&#xdf;" horiz-adv-x="320" 
d="M64 320l96 96l-32 32h-64v-128v0zM0 0v448l64 64h64l96 -96l-96 -96v-64h64l64 -64v-128l-64 -64h-64l-64 64h128v128h-64l-64 64v-256h-64z" />
    <glyph glyph-name="agrave" unicode="&#xe0;" 
d="M256 64v128h-192v-128h192zM64 0l-64 64v128l64 64h192v64h-192v64h192l64 -64v-320h-256zM128 448l-64 64h64l64 -64h-64z" />
    <glyph glyph-name="aacute" unicode="&#xe1;" 
d="M256 64v128h-192v-128h192zM64 0l-64 64v128l64 64h192v64h-192v64h192l64 -64v-320h-256zM128 448l64 64h64l-64 -64h-64z" />
    <glyph glyph-name="acircumflex" unicode="&#xe2;" 
d="M256 64v128h-192v-128h192zM64 0l-64 64v128l64 64h192v64h-192v64h192l64 -64v-320h-256zM64 448l64 64h64l64 -64h-64l-32 32l-32 -32h-64z" />
    <glyph glyph-name="atilde" unicode="&#xe3;" 
d="M256 64v128h-192v-128h192zM64 0l-64 64v128l64 64h192v64h-192v64h192l64 -64v-320h-256zM64 384v64l64 64l64 -64l64 64v-64l-64 -64l-64 64l-64 -64v0z" />
    <glyph glyph-name="adieresis" unicode="&#xe4;" 
d="M256 64v128h-192v-128h192zM64 0l-64 64v128l64 64h192v64h-192v64h192l64 -64v-320h-256zM64 448v64h64v-64h-64zM192 448v64h64v-64h-64z" />
    <glyph glyph-name="aring" unicode="&#xe5;" 
d="M256 64v128h-192v-128h192zM64 0l-64 64v128l64 64h192v64h-192v64h192l64 -64v-320h-256zM192 448v64h-64v-64h64zM128 416l-32 32v64l32 32h64l32 -32v-64l-32 -32h-64z" />
    <glyph glyph-name="ae" unicode="&#xe6;" 
d="M128 64v128h-64v-128h64zM256 256v64h-64v-64h64zM64 0l-64 64v128l64 64h64v64h-96v64h224l64 -64v-64l-64 -64h-64v-128h128l-64 -64h-192z" />
    <glyph glyph-name="ccedilla" unicode="&#xe7;" 
d="M128 -128l64 64l-64 64h-64l-64 64v256l64 64h192l64 -64v-64h-64v64h-192v-256h256l-64 -64h-64l64 -64l-64 -64h-64z" />
    <glyph glyph-name="egrave" unicode="&#xe8;" 
d="M256 256v64h-192v-64h192zM64 0l-64 64v256l64 64h192l64 -64v-64l-64 -64h-192v-128h256l-64 -64h-192zM128 448l-64 64h64l64 -64h-64z" />
    <glyph glyph-name="eacute" unicode="&#xe9;" 
d="M256 256v64h-192v-64h192zM64 0l-64 64v256l64 64h192l64 -64v-64l-64 -64h-192v-128h256l-64 -64h-192zM128 448l64 64h64l-64 -64h-64z" />
    <glyph glyph-name="ecircumflex" unicode="&#xea;" 
d="M256 256v64h-192v-64h192zM64 0l-64 64v256l64 64h192l64 -64v-64l-64 -64h-192v-128h256l-64 -64h-192zM64 448l64 64h64l64 -64h-64l-32 32l-32 -32h-64z" />
    <glyph glyph-name="edieresis" unicode="&#xeb;" 
d="M256 256v64h-192v-64h192zM64 0l-64 64v256l64 64h192l64 -64v-64l-64 -64h-192v-128h256l-64 -64h-192zM64 448v64h64v-64h-64zM192 448v64h64v-64h-64z" />
    <glyph glyph-name="igrave" unicode="&#xec;" horiz-adv-x="128" 
d="M0 0v384h64v-384h-64zM0 448l-64 64h64l64 -64h-64z" />
    <glyph glyph-name="iacute" unicode="&#xed;" horiz-adv-x="192" 
d="M0 0v384h64v-384h-64zM0 448l64 64h64l-64 -64h-64z" />
    <glyph glyph-name="icircumflex" unicode="&#xee;" horiz-adv-x="192" 
d="M0 0v384h64v-384h-64zM-64 448l64 64h64l64 -64h-64l-32 32l-32 -32h-64z" />
    <glyph glyph-name="idieresis" unicode="&#xef;" horiz-adv-x="128" 
d="M0 0v384h64v-384h-64zM0 448v64h64v-64h-64z" />
    <glyph glyph-name="eth" unicode="&#xf0;" 
d="M256 64v192h-192v-192h192zM64 0l-64 64v192l64 64h128v96h-64v64h64v32h64v-32h64v-64h-64v-96l64 -64v-192l-64 -64h-192z" />
    <glyph glyph-name="ntilde" unicode="&#xf1;" 
d="M0 0v384h256l64 -64v-320h-64v320h-192v-320h-64zM64 384v64l64 64l64 -64l64 64v-64l-64 -64l-64 64l-64 -64v0z" />
    <glyph glyph-name="ograve" unicode="&#xf2;" 
d="M256 64v256h-192v-256h192zM64 0l-64 64v256l64 64h192l64 -64v-256l-64 -64h-192zM128 448l-64 64h64l64 -64h-64z" />
    <glyph glyph-name="oacute" unicode="&#xf3;" 
d="M256 64v256h-192v-256h192zM64 0l-64 64v256l64 64h192l64 -64v-256l-64 -64h-192zM128 448l64 64h64l-64 -64h-64z" />
    <glyph glyph-name="ocircumflex" unicode="&#xf4;" 
d="M256 64v256h-192v-256h192zM64 0l-64 64v256l64 64h192l64 -64v-256l-64 -64h-192zM64 448l64 64h64l64 -64h-64l-32 32l-32 -32h-64z" />
    <glyph glyph-name="otilde" unicode="&#xf5;" 
d="M256 64v256h-192v-256h192zM64 0l-64 64v256l64 64h192l64 -64v-256l-64 -64h-192zM64 384v64l64 64l64 -64l64 64v-64l-64 -64l-64 64l-64 -64v0z" />
    <glyph glyph-name="odieresis" unicode="&#xf6;" 
d="M256 64v256h-192v-256h192zM64 0l-64 64v256l64 64h192l64 -64v-256l-64 -64h-192zM64 448v64h64v-64h-64zM192 448v64h64v-64h-64z" />
    <glyph glyph-name="divide" unicode="&#xf7;" 
d="M128 128v64h64v-64h-64zM0 256v64h320v-64h-320zM128 384v64h64v-64h-64z" />
    <glyph glyph-name="oslash" unicode="&#xf8;" 
d="M256 64v192l-192 -192h192zM64 128l192 192h-192v-192v0zM64 0l-64 64v256l64 64h192l64 -64v-256l-64 -64h-192z" />
    <glyph glyph-name="ugrave" unicode="&#xf9;" 
d="M64 0l-64 64v320h64v-320h192v320h64v-384h-64v32l-32 -32h-160zM128 448l-64 64h64l64 -64h-64z" />
    <glyph glyph-name="uacute" unicode="&#xfa;" 
d="M64 0l-64 64v320h64v-320h192v320h64v-384h-64v32l-32 -32h-160zM128 448l64 64h64l-64 -64h-64z" />
    <glyph glyph-name="ucircumflex" unicode="&#xfb;" 
d="M64 0l-64 64v320h64v-320h192v320h64v-384h-64v32l-32 -32h-160zM64 448l64 64h64l64 -64h-64l-32 32l-32 -32h-64z" />
    <glyph glyph-name="udieresis" unicode="&#xfc;" 
d="M64 0l-64 64v320h64v-320h192v320h64v-384h-64v32l-32 -32h-160zM64 448v64h64v-64h-64zM192 448v64h64v-64h-64z" />
    <glyph glyph-name="yacute" unicode="&#xfd;" 
d="M0 -192v64h256v128h-192l-64 64v320h64v-320h192v320h64v-512l-64 -64h-256zM128 448l64 64h64l-64 -64h-64z" />
    <glyph glyph-name="thorn" unicode="&#xfe;" horiz-adv-x="320" 
d="M192 128v128h-128v-128h128zM0 0v384h64v-64h128l64 -64v-128l-64 -64h-128v-64h-64z" />
    <glyph glyph-name="ydieresis" unicode="&#xff;" 
d="M0 -192v64h256v128h-192l-64 64v320h64v-320h192v320h64v-512l-64 -64h-256zM64 448v64h64v-64h-64zM192 448v64h64v-64h-64z" />
    <glyph glyph-name="Amacron" unicode="&#x100;" 
d="M256 320v128h-192v-128h192zM0 0v448l64 64h192l64 -64v-448h-64v256h-192v-256h-64zM0 576v64h320v-64h-320z" />
    <glyph glyph-name="amacron" unicode="&#x101;" 
d="M256 64v128h-192v-128h192zM64 0l-64 64v128l64 64h192v64h-192v64h192l64 -64v-320h-256zM0 448v64h320v-64h-320z" />
    <glyph glyph-name="Abreve" unicode="&#x102;" 
d="M256 320v128h-192v-128h192zM0 0v448l64 64h192l64 -64v-448h-64v256h-192v-256h-64zM128 576l-64 32v64l64 -32h64l64 32v-64l-64 -32h-64z" />
    <glyph glyph-name="abreve" unicode="&#x103;" 
d="M256 64v128h-192v-128h192zM64 0l-64 64v128l64 64h192v64h-192v64h192l64 -64v-320h-256zM128 448l-64 32v64l64 -32h64l64 32v-64l-64 -32h-64z" />
    <glyph glyph-name="Aogonek" unicode="&#x104;" 
d="M256 320v128h-192v-128h192zM256 -128l-64 64l64 64v256h-192v-256h-64v448l64 64h192l64 -64v-448l-64 -64l64 -64h-64z" />
    <glyph glyph-name="aogonek" unicode="&#x105;" 
d="M256 64v128h-192v-128h192zM256 -128l-64 64l64 64h-192l-64 64v128l64 64h192v64h-192v64h192l64 -64v-320l-64 -64l64 -64h-64z" />
    <glyph glyph-name="Cacute" unicode="&#x106;" 
d="M64 0l-64 64v384l64 64h192l64 -64v-64h-64v64h-192v-384h192v64h64v-64l-64 -64h-192zM128 576l64 64h64l-64 -64h-64z" />
    <glyph glyph-name="cacute" unicode="&#x107;" 
d="M64 0l-64 64v256l64 64h192l64 -64v-64h-64v64h-192v-256h256l-64 -64h-192zM128 448l64 64h64l-64 -64h-64z" />
    <glyph glyph-name="Ccircumflex" unicode="&#x108;" 
d="M64 0l-64 64v384l64 64h192l64 -64v-64h-64v64h-192v-384h192v64h64v-64l-64 -64h-192zM64 576l64 64h64l64 -64h-64l-32 32l-32 -32h-64z" />
    <glyph glyph-name="ccircumflex" unicode="&#x109;" 
d="M64 0l-64 64v256l64 64h192l64 -64v-64h-64v64h-192v-256h256l-64 -64h-192zM64 448l64 64h64l64 -64h-64l-32 32l-32 -32h-64z" />
    <glyph glyph-name="Cdot" unicode="&#x10a;" 
d="M64 0l-64 64v384l64 64h192l64 -64v-64h-64v64h-192v-384h192v64h64v-64l-64 -64h-192zM128 576v64h64v-64h-64z" />
    <glyph glyph-name="cdot" unicode="&#x10b;" 
d="M64 0l-64 64v256l64 64h192l64 -64v-64h-64v64h-192v-256h256l-64 -64h-192zM128 448v64h64v-64h-64z" />
    <glyph glyph-name="Ccaron" unicode="&#x10c;" 
d="M64 0l-64 64v384l64 64h192l64 -64v-64h-64v64h-192v-384h192v64h64v-64l-64 -64h-192zM128 576l-64 64h64l32 -32l32 32h64l-64 -64h-64z" />
    <glyph glyph-name="ccaron" unicode="&#x10d;" 
d="M64 0l-64 64v256l64 64h192l64 -64v-64h-64v64h-192v-256h256l-64 -64h-192zM128 448l-64 64h64l32 -32l32 32h64l-64 -64h-64z" />
    <glyph glyph-name="Dcaron" unicode="&#x10e;" 
d="M192 64l64 64v256l-64 64h-128v-384h128zM0 0v512h192l128 -128v-256l-128 -128h-192zM128 576l-64 64h64l32 -32l32 32h64l-64 -64h-64z" />
    <glyph glyph-name="dcaron" unicode="&#x10f;" horiz-adv-x="448" 
d="M256 64v256h-192v-256h192zM64 0l-64 64v256l64 64h192v128h64v-64l32 32l-32 32v64l64 -64v-64l-64 -64v-384h-256z" />
    <glyph glyph-name="Dcroat" unicode="&#x110;" 
d="M192 64l64 64v256l-64 64h-128v-160h64v-64h-64v-160h128zM0 0v224h-64v64h64v224h192l128 -128v-256l-128 -128h-192z" />
    <glyph glyph-name="dcroat" unicode="&#x111;" 
d="M256 64v256h-192v-256h192zM64 0l-64 64v256l64 64h192v32h-64v64h64v32h64v-512h-256z" />
    <glyph glyph-name="Emacron" unicode="&#x112;" 
d="M0 0v512h320v-64h-256v-128h128v-64h-128v-192h256v-64h-320zM0 576v64h320v-64h-320z" />
    <glyph glyph-name="emacron" unicode="&#x113;" 
d="M256 256v64h-192v-64h192zM64 0l-64 64v256l64 64h192l64 -64v-64l-64 -64h-192v-128h256l-64 -64h-192zM0 448v64h320v-64h-320z" />
    <glyph glyph-name="Ebreve" unicode="&#x114;" 
d="M0 0v512h320v-64h-256v-128h128v-64h-128v-192h256v-64h-320zM128 576l-64 32v64l64 -32h64l64 32v-64l-64 -32h-64z" />
    <glyph glyph-name="ebreve" unicode="&#x115;" 
d="M256 256v64h-192v-64h192zM64 0l-64 64v256l64 64h192l64 -64v-64l-64 -64h-192v-128h256l-64 -64h-192zM128 448l-64 32v64l64 -32h64l64 32v-64l-64 -32h-64z" />
    <glyph glyph-name="Edot" unicode="&#x116;" 
d="M0 0v512h320v-64h-256v-128h128v-64h-128v-192h256v-64h-320zM128 576v64h64v-64h-64z" />
    <glyph glyph-name="edot" unicode="&#x117;" 
d="M256 256v64h-192v-64h192zM64 0l-64 64v256l64 64h192l64 -64v-64l-64 -64h-192v-128h256l-64 -64h-192zM128 448v64h64v-64h-64z" />
    <glyph glyph-name="Eogonek" unicode="&#x118;" 
d="M256 -128l-64 64l64 64h-256v512h320v-64h-256v-128h128v-64h-128v-192h256v-64l-64 -64l64 -64h-64z" />
    <glyph glyph-name="eogonek" unicode="&#x119;" 
d="M256 256v64h-192v-64h192zM192 -128l-64 64l64 64h-128l-64 64v256l64 64h192l64 -64v-64l-64 -64h-192v-128h256l-128 -128l64 -64h-64z" />
    <glyph glyph-name="Ecaron" unicode="&#x11a;" 
d="M0 0v512h320v-64h-256v-128h128v-64h-128v-192h256v-64h-320zM128 576l-64 64h64l32 -32l32 32h64l-64 -64h-64z" />
    <glyph glyph-name="ecaron" unicode="&#x11b;" 
d="M256 256v64h-192v-64h192zM64 0l-64 64v256l64 64h192l64 -64v-64l-64 -64h-192v-128h256l-64 -64h-192zM128 448l-64 64h64l32 -32l32 32h64l-64 -64h-64z" />
    <glyph glyph-name="Gcircumflex" unicode="&#x11c;" 
d="M64 0l-64 64v384l64 64h192l64 -64h-256v-384h192v256l64 -64v-192l-64 -64h-192zM64 576l64 64h64l64 -64h-64l-32 32l-32 -32h-64z" />
    <glyph glyph-name="gcircumflex" unicode="&#x11d;" 
d="M256 64v256h-192v-256h192zM0 -192v64h256v128h-192l-64 64v256l64 64h192l64 -64v-448l-64 -64h-256zM64 448l64 64h64l64 -64h-64l-32 32l-32 -32h-64z" />
    <glyph glyph-name="Gbreve" unicode="&#x11e;" 
d="M64 0l-64 64v384l64 64h192l64 -64h-256v-384h192v256l64 -64v-192l-64 -64h-192zM128 576l-64 32v64l64 -32h64l64 32v-64l-64 -32h-64z" />
    <glyph glyph-name="gbreve" unicode="&#x11f;" 
d="M256 64v256h-192v-256h192zM0 -192v64h256v128h-192l-64 64v256l64 64h192l64 -64v-448l-64 -64h-256zM128 448l-64 32v64l64 -32h64l64 32v-64l-64 -32h-64z" />
    <glyph glyph-name="Gdot" unicode="&#x120;" 
d="M64 0l-64 64v384l64 64h192l64 -64h-256v-384h192v256l64 -64v-192l-64 -64h-192zM128 576v64h64v-64h-64z" />
    <glyph glyph-name="gdot" unicode="&#x121;" 
d="M256 64v256h-192v-256h192zM0 -192v64h256v128h-192l-64 64v256l64 64h192l64 -64v-448l-64 -64h-256zM128 448v64h64v-64h-64z" />
    <glyph glyph-name="Gcedilla" unicode="&#x122;" 
d="M128 -128l64 64l-64 64h-64l-64 64v384l64 64h192l64 -64h-256v-384h192v256l64 -64v-192l-64 -64h-64l64 -64l-64 -64h-64z" />
    <glyph glyph-name="gcedilla" unicode="&#x123;" 
d="M256 64v256h-192v-256h192zM0 -192v64h256v128h-192l-64 64v256l64 64h64l64 64l-64 64h64l64 -64l-64 -64h64l64 -64v-448l-64 -64h-256z" />
    <glyph glyph-name="Hcircumflex" unicode="&#x124;" 
d="M0 0v512h64v-192h192v192h64v-512h-64v256h-192v-256h-64zM64 576l64 64h64l64 -64h-64l-32 32l-32 -32h-64z" />
    <glyph glyph-name="hcircumflex" unicode="&#x125;" 
d="M0 0v512h64v-128h192l64 -64v-320h-64v320h-192v-320h-64zM-64 576l64 64h64l64 -64h-64l-32 32l-32 -32h-64z" />
    <glyph glyph-name="Hbar" unicode="&#x126;" 
d="M256 320v64h-192v-64h192zM0 0v512h64v-96h192v96h64v-512h-64v256h-192v-256h-64z" />
    <glyph glyph-name="hbar" unicode="&#x127;" 
d="M0 0v512h64v-32h128v-32h-128v-64h192l64 -64v-320h-64v320h-192v-320h-64z" />
    <glyph glyph-name="Itilde" unicode="&#x128;" horiz-adv-x="192" 
d="M0 0v512h64v-512h-64zM-64 512v64l64 64l64 -64l64 64v-64l-64 -64l-64 64l-64 -64v0z" />
    <glyph glyph-name="itilde" unicode="&#x129;" horiz-adv-x="192" 
d="M0 0v384h64v-384h-64zM-64 448v64l64 64l64 -64l64 64v-64l-64 -64l-64 64l-64 -64v0z" />
    <glyph glyph-name="Imacron" unicode="&#x12a;" horiz-adv-x="192" 
d="M0 0v512h64v-512h-64zM-64 576v64h192v-64h-192z" />
    <glyph glyph-name="imacron" unicode="&#x12b;" horiz-adv-x="192" 
d="M0 0v384h64v-384h-64zM-64 448v64h192v-64h-192z" />
    <glyph glyph-name="Ibreve" unicode="&#x12c;" horiz-adv-x="192" 
d="M0 0v512h64v-512h-64zM0 576l-64 32v64l64 -32h64l64 32v-64l-64 -32h-64z" />
    <glyph glyph-name="ibreve" unicode="&#x12d;" horiz-adv-x="192" 
d="M0 0v384h64v-384h-64zM0 448l-64 32v64l64 -32h64l64 32v-64l-64 -32h-64z" />
    <glyph glyph-name="Iogonek" unicode="&#x12e;" horiz-adv-x="128" 
d="M0 -128l-64 64l64 64v512h64v-512l-64 -64l64 -64h-64z" />
    <glyph glyph-name="iogonek" unicode="&#x12f;" horiz-adv-x="128" 
d="M0 -128l-64 64l64 64v384h64v-384l-64 -64l64 -64h-64zM0 448v64h64v-64h-64z" />
    <glyph glyph-name="Idotaccent" unicode="&#x130;" horiz-adv-x="128" 
d="M0 0v512h64v-512h-64zM0 576v64h64v-64h-64z" />
    <glyph glyph-name="dotlessi" unicode="&#x131;" horiz-adv-x="128" 
d="M0 0v384h64v-384h-64z" />
    <glyph glyph-name="Jcircumflex" unicode="&#x134;" 
d="M64 0l-64 64v128h64v-128h128v384h-64v64h192v-64h-64v-384l-64 -64h-128zM128 576l64 64h64l64 -64h-64l-32 32l-32 -32h-64z" />
    <glyph glyph-name="jcircumflex" unicode="&#x135;" horiz-adv-x="256" 
d="M0 -192l-64 64v64h64v-64h128v448h-64v64h128v-512l-64 -64h-128zM0 448l64 64h64l64 -64h-64l-32 32l-32 -32h-64z" />
    <glyph glyph-name="Kcedilla" unicode="&#x136;" 
d="M192 -128l64 64l-64 64h64l64 -64l-64 -64h-64zM0 0v512h64v-192h64l192 192v-64l-128 -128h64l64 -64v-256h-64v256h-192v-256h-64z" />
    <glyph glyph-name="kcedilla" unicode="&#x137;" 
d="M192 -128l64 64l-64 64h64l64 -64l-64 -64h-64zM0 0v512h64v-256h64l128 128h64l-128 -128h64l64 -64v-192h-64v192h-192v-192h-64z" />
    <glyph glyph-name="kgreenlandic" unicode="&#x138;" 
d="M0 0v384h64v-128h64l128 128h64l-128 -128h64l64 -64v-192h-64v192h-192v-192h-64z" />
    <glyph glyph-name="Lacute" unicode="&#x139;" 
d="M0 0v512h64v-448h256v-64h-320zM0 576l64 64h64l-64 -64h-64z" />
    <glyph glyph-name="lacute" unicode="&#x13a;" horiz-adv-x="192" 
d="M0 0v512l64 -64v-448h-64zM0 576l64 64h64l-64 -64h-64z" />
    <glyph glyph-name="Lcedilla" unicode="&#x13b;" 
d="M128 -128l64 64l-64 64h-128v512h64v-448h256v-64h-128l64 -64l-64 -64h-64z" />
    <glyph glyph-name="lcedilla" unicode="&#x13c;" horiz-adv-x="192" 
d="M0 -128l64 64l-64 64v512l64 -64v-448l64 -64l-64 -64h-64z" />
    <glyph glyph-name="Lcaron" unicode="&#x13d;" 
d="M0 0v512h64v-448h256v-64h-320zM128 320v64l32 32l-32 32v64l64 -64v-64l-64 -64v0z" />
    <glyph glyph-name="lcaron" unicode="&#x13e;" horiz-adv-x="192" 
d="M0 0v512l64 -64v-64l32 32l-32 32v64l64 -64v-64l-64 -64v-320h-64z" />
    <glyph glyph-name="Ldot" unicode="&#x13f;" 
d="M128 256v64h64v-64h-64zM0 0v512h64v-448h256v-64h-320z" />
    <glyph glyph-name="ldot" unicode="&#x140;" horiz-adv-x="256" 
d="M96 256v64h64v-64h-64zM0 0v512l64 -64v-448h-64z" />
    <glyph glyph-name="Lslash" unicode="&#x141;" 
d="M0 0v288h-64v32h64v192h64v-192h128v-32h-128v-224h256v-64h-320z" />
    <glyph glyph-name="lslash" unicode="&#x142;" horiz-adv-x="256" 
d="M0 0v288h-64v32h64v192l64 -64v-128h128v-32h-128v-288h-64z" />
    <glyph glyph-name="Nacute" unicode="&#x143;" 
d="M0 0v512h64l192 -384v384h64v-512h-64l-192 384v-384h-64zM128 576l64 64h64l-64 -64h-64z" />
    <glyph glyph-name="nacute" unicode="&#x144;" 
d="M0 0v384h64v-32l32 32h160l64 -64v-320h-64v320h-192v-320h-64zM128 448l64 64h64l-64 -64h-64z" />
    <glyph glyph-name="Ncedilla" unicode="&#x145;" 
d="M192 -128l64 64l-64 64h64l64 -64l-64 -64h-64zM0 0v512h64l192 -384v384h64v-512h-64l-192 384v-384h-64z" />
    <glyph glyph-name="ncedilla" unicode="&#x146;" 
d="M192 -128l64 64l-64 64h64l64 -64l-64 -64h-64zM0 0v384h64v-32l32 32h160l64 -64v-320h-64v320h-192v-320h-64z" />
    <glyph glyph-name="Ncaron" unicode="&#x147;" 
d="M0 0v512h64l192 -384v384h64v-512h-64l-192 384v-384h-64zM128 576l-64 64h64l32 -32l32 32h64l-64 -64h-64z" />
    <glyph glyph-name="ncaron" unicode="&#x148;" 
d="M0 0v384h64v-32l32 32h160l64 -64v-320h-64v320h-192v-320h-64zM128 448l-64 64h64l32 -32l32 32h64l-64 -64h-64z" />
    <glyph glyph-name="napostrophe" unicode="&#x149;" 
d="M0 0v384h64v-32l32 32h160l64 -64v-320h-64v320h-192v-320h-64zM-32 384v128h64v-64l-32 -64h-32z" />
    <glyph glyph-name="Eng" unicode="&#x14a;" 
d="M128 -128v64h64l64 64l-192 384v-384h-64v512h64l192 -384v384h64v-512l-128 -128h-64z" />
    <glyph glyph-name="eng" unicode="&#x14b;" 
d="M128 -128v64h64l64 64v320h-192v-320h-64v384h64v-32l32 32h160l64 -64v-320l-128 -128h-64z" />
    <glyph glyph-name="Omacron" unicode="&#x14c;" 
d="M256 64v384h-192v-384h192zM64 0l-64 64v384l64 64h192l64 -64v-384l-64 -64h-192zM0 576v64h320v-64h-320z" />
    <glyph glyph-name="omacron" unicode="&#x14d;" 
d="M256 64v256h-192v-256h192zM64 0l-64 64v256l64 64h192l64 -64v-256l-64 -64h-192zM0 448v64h320v-64h-320z" />
    <glyph glyph-name="Obreve" unicode="&#x14e;" 
d="M256 64v384h-192v-384h192zM64 0l-64 64v384l64 64h192l64 -64v-384l-64 -64h-192zM128 576l-64 32v64l64 -32h64l64 32v-64l-64 -32h-64z" />
    <glyph glyph-name="obreve" unicode="&#x14f;" 
d="M256 64v256h-192v-256h192zM64 0l-64 64v256l64 64h192l64 -64v-256l-64 -64h-192zM128 448l-64 32v64l64 -32h64l64 32v-64l-64 -32h-64z" />
    <glyph glyph-name="Odblacute" unicode="&#x150;" 
d="M256 64v384h-192v-384h192zM64 0l-64 64v384l64 64h192l64 -64v-384l-64 -64h-192zM64 576l64 64h64l-64 -64h-64zM192 576l64 64h64l-64 -64h-64z" />
    <glyph glyph-name="odblacute" unicode="&#x151;" 
d="M256 64v256h-192v-256h192zM64 0l-64 64v256l64 64h192l64 -64v-256l-64 -64h-192zM64 448l64 64h64l-64 -64h-64zM192 448l64 64h64l-64 -64h-64z" />
    <glyph glyph-name="OE" unicode="&#x152;" 
d="M128 64v384h-64v-384h64zM64 0l-64 64v384l64 64h256v-64h-128v-128h96v-64h-96v-192h128v-64h-256z" />
    <glyph glyph-name="oe" unicode="&#x153;" 
d="M128 64v256h-64v-256h64zM256 256v64h-64v-64h64zM64 0l-64 64v256l64 64h64l32 -32l32 32h64l64 -64v-64l-64 -64h-64v-128h128l-64 -64h-64l-32 32l-32 -32h-64z" />
    <glyph glyph-name="Racute" unicode="&#x154;" 
d="M256 320v128h-192v-128h192zM0 0v512h256l64 -64v-128l-64 -64h-64l128 -256h-64l-128 256h-64v-256h-64zM128 576l64 64h64l-64 -64h-64z" />
    <glyph glyph-name="racute" unicode="&#x155;" 
d="M0 0v384h64v-32l32 32h160l64 -64v-64h-64v64h-192v-320h-64zM128 448l64 64h64l-64 -64h-64z" />
    <glyph glyph-name="Rcedilla" unicode="&#x156;" 
d="M192 -128l64 64l-64 64h64l64 -64l-64 -64h-64zM256 320v128h-192v-128h192zM0 0v512h256l64 -64v-128l-64 -64h-64l128 -256h-64l-128 256h-64v-256h-64z" />
    <glyph glyph-name="rcedilla" unicode="&#x157;" 
d="M64 -128l64 64l-64 64h64l64 -64l-64 -64h-64zM0 0v384h64v-32l32 32h160l64 -64v-64h-64v64h-192v-320h-64z" />
    <glyph glyph-name="Rcaron" unicode="&#x158;" 
d="M256 320v128h-192v-128h192zM0 0v512h256l64 -64v-128l-64 -64h-64l128 -256h-64l-128 256h-64v-256h-64zM128 576l-64 64h64l32 -32l32 32h64l-64 -64h-64z" />
    <glyph glyph-name="rcaron" unicode="&#x159;" 
d="M0 0v384h64v-32l32 32h160l64 -64v-64h-64v64h-192v-320h-64zM128 448l-64 64h64l32 -32l32 32h64l-64 -64h-64z" />
    <glyph glyph-name="Sacute" unicode="&#x15a;" 
d="M64 0l-64 64h256v192h-192l-64 64v128l64 64h192l64 -64h-256v-128h192l64 -64v-192l-64 -64h-192zM128 576l64 64h64l-64 -64h-64z" />
    <glyph glyph-name="sacute" unicode="&#x15b;" 
d="M64 0l-64 64h256v128h-192l-64 64v64l64 64h192l64 -64h-256v-64h192l64 -64v-128l-64 -64h-192zM128 448l64 64h64l-64 -64h-64z" />
    <glyph glyph-name="Scircumflex" unicode="&#x15c;" 
d="M64 0l-64 64h256v192h-192l-64 64v128l64 64h192l64 -64h-256v-128h192l64 -64v-192l-64 -64h-192zM64 576l64 64h64l64 -64h-64l-32 32l-32 -32h-64z" />
    <glyph glyph-name="scircumflex" unicode="&#x15d;" 
d="M64 0l-64 64h256v128h-192l-64 64v64l64 64h192l64 -64h-256v-64h192l64 -64v-128l-64 -64h-192zM64 448l64 64h64l64 -64h-64l-32 32l-32 -32h-64z" />
    <glyph glyph-name="Scedilla" unicode="&#x15e;" 
d="M128 -128l64 64l-64 64h-64l-64 64h256v192h-192l-64 64v128l64 64h192l64 -64h-256v-128h192l64 -64v-192l-64 -64h-64l64 -64l-64 -64h-64z" />
    <glyph glyph-name="scedilla" unicode="&#x15f;" 
d="M128 -128l64 64l-64 64h-64l-64 64h256v128h-192l-64 64v64l64 64h192l64 -64h-256v-64h192l64 -64v-128l-64 -64h-64l64 -64l-64 -64h-64z" />
    <glyph glyph-name="Scaron" unicode="&#x160;" 
d="M64 0l-64 64h256v192h-192l-64 64v128l64 64h192l64 -64h-256v-128h192l64 -64v-192l-64 -64h-192zM128 576l-64 64h64l32 -32l32 32h64l-64 -64h-64z" />
    <glyph glyph-name="scaron" unicode="&#x161;" 
d="M64 0l-64 64h256v128h-192l-64 64v64l64 64h192l64 -64h-256v-64h192l64 -64v-128l-64 -64h-192zM128 448l-64 64h64l32 -32l32 32h64l-64 -64h-64z" />
    <glyph glyph-name="Tcedilla" unicode="&#x162;" 
d="M128 -128l64 64l-64 64v448h-128v64h320v-64h-128v-448l64 -64l-64 -64h-64z" />
    <glyph glyph-name="tcedilla" unicode="&#x163;" horiz-adv-x="320" 
d="M128 -128l64 64l-128 128v256h-64v64h64v128h64v-128h128v-64h-128v-256h128v-64h-64l64 -64l-64 -64h-64z" />
    <glyph glyph-name="Tcaron" unicode="&#x164;" 
d="M128 0v448h-128v64h320v-64h-128v-448h-64zM128 576l-64 64h64l32 -32l32 32h64l-64 -64h-64z" />
    <glyph glyph-name="tcaron" unicode="&#x165;" horiz-adv-x="320" 
d="M128 0l-64 64v256h-64v64h64v128h64v-128h128v-64h-128v-256h128v-64h-128zM192 448v64l32 32l-32 32v64l64 -64v-64l-64 -64v0z" />
    <glyph glyph-name="Tbar" unicode="&#x166;" 
d="M128 0v256h-64v32h64v160h-128v64h320v-64h-128v-160h64v-32h-64v-256h-64z" />
    <glyph glyph-name="tbar" unicode="&#x167;" horiz-adv-x="320" 
d="M128 0l-64 64v128h-64v32h64v96h-64v64h64v128h64v-128h128v-64h-128v-96h128v-32h-128v-128h128v-64h-128z" />
    <glyph glyph-name="Utilde" unicode="&#x168;" 
d="M64 0l-64 64v448h64v-448h192v448h64v-448l-64 -64h-192zM64 512v64l64 64l64 -64l64 64v-64l-64 -64l-64 64l-64 -64v0z" />
    <glyph glyph-name="utilde" unicode="&#x169;" 
d="M64 0l-64 64v320h64v-320h192v320h64v-384h-64v32l-32 -32h-160zM64 384v64l64 64l64 -64l64 64v-64l-64 -64l-64 64l-64 -64v0z" />
    <glyph glyph-name="Umacron" unicode="&#x16a;" 
d="M64 0l-64 64v448h64v-448h192v448h64v-448l-64 -64h-192zM0 576v64h320v-64h-320z" />
    <glyph glyph-name="umacron" unicode="&#x16b;" 
d="M64 0l-64 64v320h64v-320h192v320h64v-384h-64v32l-32 -32h-160zM0 448v64h320v-64h-320z" />
    <glyph glyph-name="Ubreve" unicode="&#x16c;" 
d="M64 0l-64 64v448h64v-448h192v448h64v-448l-64 -64h-192zM128 576l-64 32v64l64 -32h64l64 32v-64l-64 -32h-64z" />
    <glyph glyph-name="ubreve" unicode="&#x16d;" 
d="M64 0l-64 64v320h64v-320h192v320h64v-384h-64v32l-32 -32h-160zM128 448l-64 32v64l64 -32h64l64 32v-64l-64 -32h-64z" />
    <glyph glyph-name="Uring" unicode="&#x16e;" 
d="M64 0l-64 64v448h64v-448h192v448h64v-448l-64 -64h-192zM192 576v64h-64v-64h64zM128 544l-32 32v64l32 32h64l32 -32v-64l-32 -32h-64z" />
    <glyph glyph-name="uring" unicode="&#x16f;" 
d="M64 0l-64 64v320h64v-320h192v320h64v-384h-64v32l-32 -32h-160zM192 448v64h-64v-64h64zM128 416l-32 32v64l32 32h64l32 -32v-64l-32 -32h-64z" />
    <glyph glyph-name="Udblacute" unicode="&#x170;" 
d="M64 0l-64 64v448h64v-448h192v448h64v-448l-64 -64h-192zM64 576l64 64h64l-64 -64h-64zM192 576l64 64h64l-64 -64h-64z" />
    <glyph glyph-name="udblacute" unicode="&#x171;" 
d="M64 0l-64 64v320h64v-320h192v320h64v-384h-64v32l-32 -32h-160zM64 448l64 64h64l-64 -64h-64zM192 448l64 64h64l-64 -64h-64z" />
    <glyph glyph-name="Uogonek" unicode="&#x172;" 
d="M192 -128l-64 64l64 64h-128l-64 64v448h64v-448h192v448h64v-448l-128 -128l64 -64h-64z" />
    <glyph glyph-name="uogonek" unicode="&#x173;" 
d="M256 -128l-64 64l64 64v32l-32 -32h-160l-64 64v320h64v-320h192v320h64v-384l-64 -64l64 -64h-64z" />
    <glyph glyph-name="Wcircumflex" unicode="&#x174;" 
d="M0 0v512h64v-384l64 128h64l64 -128v384h64v-512h-64l-96 192l-96 -192h-64zM64 576l64 64h64l64 -64h-64l-32 32l-32 -32h-64z" />
    <glyph glyph-name="wcircumflex" unicode="&#x175;" 
d="M0 0v384h64v-256l64 128h64l64 -128v256h64v-384h-64l-96 192l-96 -192h-64zM64 448l64 64h64l64 -64h-64l-32 32l-32 -32h-64z" />
    <glyph glyph-name="Ycircumflex" unicode="&#x176;" 
d="M128 0v256l-128 256h64l96 -192l96 192h64l-128 -256v-256h-64zM64 576l64 64h64l64 -64h-64l-32 32l-32 -32h-64z" />
    <glyph glyph-name="ycircumflex" unicode="&#x177;" 
d="M0 -192v64h256v128h-192l-64 64v320h64v-320h192v320h64v-512l-64 -64h-256zM64 448l64 64h64l64 -64h-64l-32 32l-32 -32h-64z" />
    <glyph glyph-name="Ydieresis" unicode="&#x178;" 
d="M128 0v256l-128 256h64l96 -192l96 192h64l-128 -256v-256h-64zM64 576v64h64v-64h-64zM192 576v64h64v-64h-64z" />
    <glyph glyph-name="Zacute" unicode="&#x179;" 
d="M0 0l224 448h-224v64h320l-224 -448h224v-64h-320zM128 576l64 64h64l-64 -64h-64z" />
    <glyph glyph-name="zacute" unicode="&#x17a;" 
d="M0 0v64l256 256h-256v64h320v-64l-256 -256h256v-64h-320zM128 448l64 64h64l-64 -64h-64z" />
    <glyph glyph-name="Zdot" unicode="&#x17b;" 
d="M0 0l224 448h-224v64h320l-224 -448h224v-64h-320zM128 576v64h64v-64h-64z" />
    <glyph glyph-name="zdot" unicode="&#x17c;" 
d="M0 0v64l256 256h-256v64h320v-64l-256 -256h256v-64h-320zM128 448v64h64v-64h-64z" />
    <glyph glyph-name="Zcaron" unicode="&#x17d;" 
d="M0 0l224 448h-224v64h320l-224 -448h224v-64h-320zM128 576l-64 64h64l32 -32l32 32h64l-64 -64h-64z" />
    <glyph glyph-name="zcaron" unicode="&#x17e;" 
d="M0 0v64l256 256h-256v64h320v-64l-256 -256h256v-64h-320zM128 448l-64 64h64l32 -32l32 32h64l-64 -64h-64z" />
    <glyph glyph-name="longs" unicode="&#x17f;" horiz-adv-x="256" 
d="M0 0v448l64 64h64l64 -64h-128v-448h-64z" />
    <glyph glyph-name="uni0400" unicode="&#x400;" 
d="M0 0v512h320v-64h-256v-128h128v-64h-128v-192h256v-64h-320zM128 576l-64 64h64l64 -64h-64z" />
    <glyph glyph-name="afii10023" unicode="&#x401;" 
d="M0 0v512h320v-64h-256v-128h128v-64h-128v-192h256v-64h-320zM64 576v64h64v-64h-64zM192 576v64h64v-64h-64z" />
    <glyph glyph-name="afii10051" unicode="&#x402;" 
d="M64 0v448h-64v64h320v-64h-192v-128h128l64 -64v-192l-64 -64h-64v64h64v192h-128v-256h-64z" />
    <glyph glyph-name="afii10052" unicode="&#x403;" 
d="M0 0v512h320l-64 -64h-192v-448h-64zM128 576l64 64h64l-64 -64h-64z" />
    <glyph glyph-name="afii10053" unicode="&#x404;" 
d="M64 0l-64 64v384l64 64h192l64 -64h-256v-160h192v-64h-192v-160h256l-64 -64h-192z" />
    <glyph glyph-name="afii10054" unicode="&#x405;" 
d="M64 0l-64 64h256v192h-192l-64 64v128l64 64h192l64 -64h-256v-128h192l64 -64v-192l-64 -64h-192z" />
    <glyph glyph-name="afii10055" unicode="&#x406;" horiz-adv-x="128" 
d="M0 0v512h64v-512h-64z" />
    <glyph glyph-name="afii10056" unicode="&#x407;" horiz-adv-x="192" 
d="M0 0v512h64v-512h-64zM-64 576v64h64v-64h-64zM64 576v64h64v-64h-64z" />
    <glyph glyph-name="afii10057" unicode="&#x408;" 
d="M64 0l-64 64v128h64v-128h128v384h-64v64h192v-64h-64v-384l-64 -64h-128z" />
    <glyph glyph-name="afii10058" unicode="&#x409;" horiz-adv-x="448" 
d="M320 64v192h-64v-192h64zM0 0v64h64v448h192v-192h64l64 -64v-192l-64 -64h-128v448h-64v-384l-64 -64h-64z" />
    <glyph glyph-name="afii10059" unicode="&#x40a;" 
d="M256 64v192h-64v-192h64zM0 0v512h64v-192h64v192h64v-192h64l64 -64v-192l-64 -64h-128v256h-64v-256h-64z" />
    <glyph glyph-name="afii10060" unicode="&#x40b;" 
d="M64 0v448h-64v64h320v-64h-192v-128h128l64 -64v-256h-64v256h-128v-256h-64z" />
    <glyph glyph-name="afii10061" unicode="&#x40c;" 
d="M0 0v512h64v-192h64l192 192v-64l-128 -128h64l64 -64v-256h-64v256h-192v-256h-64zM128 576l64 64h64l-64 -64h-64z" />
    <glyph glyph-name="uni040D" unicode="&#x40d;" 
d="M0 0v512h64v-384l192 384h64v-512h-64v384l-192 -384h-64zM128 576l-64 32v64l64 -32h64l64 32v-64l-64 -32h-64z" />
    <glyph glyph-name="afii10062" unicode="&#x40e;" 
d="M0 0v64h256v128h-192l-64 64v256h64v-256h192v256h64v-448l-64 -64h-256zM128 576l-64 32v64l64 -32h64l64 32v-64l-64 -32h-64z" />
    <glyph glyph-name="afii10145" unicode="&#x40f;" 
d="M128 -128v128h-128v512h64v-448h192v448h64v-512h-128v-128h-64z" />
    <glyph glyph-name="Acyrillic" unicode="&#x410;" 
d="M256 320v128h-192v-128h192zM0 0v448l64 64h192l64 -64v-448h-64v256h-192v-256h-64z" />
    <glyph glyph-name="afii10018" unicode="&#x411;" 
d="M256 64v192h-192v-192h192zM0 0v512h320v-64h-256v-128h192l64 -64v-192l-64 -64h-256z" />
    <glyph glyph-name="afii10019" unicode="&#x412;" 
d="M256 64v192h-192v-192h192zM256 320v128h-192v-128h192zM0 0v512h256l64 -64v-128l-32 -32l32 -32v-192l-64 -64h-256z" />
    <glyph glyph-name="afii10020" unicode="&#x413;" 
d="M0 0v512h320l-64 -64h-192v-448h-64z" />
    <glyph glyph-name="afii10021" unicode="&#x414;" horiz-adv-x="448" 
d="M288 0v448h-128v-320l-64 -128h192zM0 -128v128h32l64 128v384h256v-512h32v-128h-64v64h-256v-64h-64z" />
    <glyph glyph-name="afii10022" unicode="&#x415;" 
d="M0 0v512h320v-64h-256v-128h128v-64h-128v-192h256v-64h-320z" />
    <glyph glyph-name="afii10024" unicode="&#x416;" 
d="M0 0v128l64 128l-64 128v128h64v-128l48 -96h16v224h64v-224h16l48 96v128h64v-128l-64 -128l64 -128v-128h-64v128l-48 96h-16v-224h-64v224h-16l-48 -96v-128h-64z" />
    <glyph glyph-name="afii10025" unicode="&#x417;" 
d="M64 0l-64 64v64h64v-64h192v192h-192v64h192v128h-192v-64h-64v64l64 64h192l64 -64v-128l-32 -32l32 -32v-192l-64 -64h-192z" />
    <glyph glyph-name="afii10026" unicode="&#x418;" 
d="M0 0v512h64v-384l192 384h64v-512h-64v384l-192 -384h-64z" />
    <glyph glyph-name="afii10027" unicode="&#x419;" 
d="M0 0v512h64v-384l192 384h64v-512h-64v384l-192 -384h-64zM128 576l-64 32v64l64 -32h64l64 32v-64l-64 -32h-64z" />
    <glyph glyph-name="afii10028" unicode="&#x41a;" 
d="M0 0v512h64v-192h64l192 192v-64l-128 -128h64l64 -64v-256h-64v256h-192v-256h-64z" />
    <glyph glyph-name="afii10029" unicode="&#x41b;" 
d="M-32 0l64 128v384h288v-512h-64v448h-160v-320l-64 -128h-64z" />
    <glyph glyph-name="afii10030" unicode="&#x41c;" 
d="M0 0v448l64 64h192l64 -64v-448h-64v448h-64v-192h-64v192h-64v-448h-64z" />
    <glyph glyph-name="afii10031" unicode="&#x41d;" 
d="M0 0v512h64v-192h192v192h64v-512h-64v256h-192v-256h-64z" />
    <glyph glyph-name="afii10032" unicode="&#x41e;" 
d="M256 64v384h-192v-384h192zM64 0l-64 64v384l64 64h192l64 -64v-384l-64 -64h-192z" />
    <glyph glyph-name="afii10033" unicode="&#x41f;" 
d="M0 0v512h320v-512h-64v448h-192v-448h-64z" />
    <glyph glyph-name="afii10034" unicode="&#x420;" 
d="M256 320v128h-192v-128h192zM0 0v512h256l64 -64v-128l-64 -64h-192v-256h-64z" />
    <glyph glyph-name="afii10035" unicode="&#x421;" 
d="M64 0l-64 64v384l64 64h192l64 -64v-64h-64v64h-192v-384h256l-64 -64h-192z" />
    <glyph glyph-name="afii10036" unicode="&#x422;" 
d="M128 0v448h-128v64h320v-64h-128v-448h-64z" />
    <glyph glyph-name="afii10037" unicode="&#x423;" 
d="M0 0v64h256v128h-192l-64 64v256h64v-256h192v256h64v-448l-64 -64h-256z" />
    <glyph glyph-name="afii10038" unicode="&#x424;" 
d="M128 192v128h-64v-128h64zM256 192v128h-64v-128h64zM128 0v128h-64l-64 64v128l64 64h64v128h64v-128h64l64 -64v-128l-64 -64h-64v-128h-64z" />
    <glyph glyph-name="afii10039" unicode="&#x425;" 
d="M0 0l128 256l-128 256h64l96 -192l96 192h64l-128 -256l128 -256h-64l-96 192l-96 -192h-64z" />
    <glyph glyph-name="afii10040" unicode="&#x426;" horiz-adv-x="448" 
d="M320 -128v128h-320v512h64v-448h192v448h64v-448h64v-192h-64z" />
    <glyph glyph-name="afii10041" unicode="&#x427;" 
d="M256 0v256h-192l-64 64v192h64v-192h192v192h64v-512h-64z" />
    <glyph glyph-name="afii10042" unicode="&#x428;" 
d="M0 0v512h64v-448h64v448h64v-448h64v448h64v-512h-320z" />
    <glyph glyph-name="afii10043" unicode="&#x429;" horiz-adv-x="448" 
d="M320 -128v128h-320v512h64v-448h64v448h64v-448h64v448h64v-448h64v-192h-64z" />
    <glyph glyph-name="afii10044" unicode="&#x42a;" 
d="M256 64v192h-64v-192h64zM128 0v448h-64l-64 64h192v-192h64l64 -64v-192l-64 -64h-128z" />
    <glyph glyph-name="afii10045" unicode="&#x42b;" 
d="M128 64v192h-64v-192h64zM0 0v512h64v-192h64l64 -64v-192l-64 -64h-128zM224 0v512h64v-512h-64z" />
    <glyph glyph-name="afii10046" unicode="&#x42c;" horiz-adv-x="320" 
d="M192 64v192h-128v-192h128zM0 0v512h64v-192h128l64 -64v-192l-64 -64h-192z" />
    <glyph glyph-name="afii10047" unicode="&#x42d;" 
d="M64 0l-64 64h256v160h-192v64h192v160h-256l64 64h192l64 -64v-384l-64 -64h-192z" />
    <glyph glyph-name="afii10048" unicode="&#x42e;" horiz-adv-x="448" 
d="M320 64v384h-128v-384h128zM0 0v512h64v-224h64v160l64 64h128l64 -64v-384l-64 -64h-128l-64 64v160h-64v-224h-64z" />
    <glyph glyph-name="afii10049" unicode="&#x42f;" 
d="M256 320v128h-192v-128h192zM0 0l128 256h-64l-64 64v128l64 64h256v-512h-64v256h-64l-128 -256h-64z" />
    <glyph glyph-name="acyrillic" unicode="&#x430;" 
d="M256 64v128h-192v-128h192zM64 0l-64 64v128l64 64h192v64h-192v64h192l64 -64v-320h-256z" />
    <glyph glyph-name="afii10066" unicode="&#x431;" 
d="M256 64v256h-192v-256h192zM64 0l-64 64v384l64 64h256l-64 -64h-192v-64h192l64 -64v-256l-64 -64h-192z" />
    <glyph glyph-name="afii10067" unicode="&#x432;" 
d="M256 64v128h-192v-128h192zM256 256v64h-192v-64h192zM0 0v384h256l64 -64v-64l-32 -32l32 -32v-128l-64 -64h-256z" />
    <glyph glyph-name="afii10068" unicode="&#x433;" 
d="M0 0v384h320l-64 -64h-192v-320h-64z" />
    <glyph glyph-name="afii10069" unicode="&#x434;" horiz-adv-x="448" 
d="M288 0v320h-128v-192l-64 -128h192zM0 -64v64h32l64 128v256h256v-384h32v-64h-384z" />
    <glyph glyph-name="afii10070" unicode="&#x435;" 
d="M256 256v64h-192v-64h192zM64 0l-64 64v256l64 64h192l64 -64v-64l-64 -64h-192v-128h256l-64 -64h-192z" />
    <glyph glyph-name="afii10072" unicode="&#x436;" 
d="M0 0v64l64 128l-64 128v64h64v-64l48 -96h16v160h64v-160h16l48 96v64h64v-64l-64 -128l64 -128v-64h-64v64l-48 96h-16v-160h-64v160h-16l-48 -96v-64h-64z" />
    <glyph glyph-name="afii10073" unicode="&#x437;" 
d="M64 0l-64 64h256v128h-128v64h128v64h-256l64 64h192l64 -64v-64l-32 -32l32 -32v-128l-64 -64h-192z" />
    <glyph glyph-name="afii10074" unicode="&#x438;" 
d="M0 0v384h64v-320l160 320h96v-384h-64v320l-160 -320h-96z" />
    <glyph glyph-name="afii10075" unicode="&#x439;" 
d="M0 0v384h64v-320l160 320h96v-384h-64v320l-160 -320h-96zM128 448l-64 32v64l64 -32h64l64 32v-64l-64 -32h-64z" />
    <glyph glyph-name="afii10076" unicode="&#x43a;" 
d="M0 0v384h64v-128h64l128 128h64l-128 -128h64l64 -64v-192h-64v192h-192v-192h-64z" />
    <glyph glyph-name="afii10077" unicode="&#x43b;" 
d="M-32 0l64 128v256h288v-384h-64v320h-160v-192l-64 -128h-64z" />
    <glyph glyph-name="afii10078" unicode="&#x43c;" 
d="M0 0v320l64 64h192l64 -64v-320h-64v320h-64v-256h-64v256h-64v-320h-64z" />
    <glyph glyph-name="afii10079" unicode="&#x43d;" 
d="M0 0v384h64v-128h192v128h64v-384h-64v192h-192v-192h-64z" />
    <glyph glyph-name="afii10080" unicode="&#x43e;" 
d="M256 64v256h-192v-256h192zM64 0l-64 64v256l64 64h192l64 -64v-256l-64 -64h-192z" />
    <glyph glyph-name="afii10081" unicode="&#x43f;" 
d="M0 0v384h320v-384h-64v320h-192v-320h-64z" />
    <glyph glyph-name="afii10082" unicode="&#x440;" 
d="M256 64v256h-192v-256h192zM0 -192v576h256l64 -64v-256l-64 -64h-192v-128l-64 -64v0z" />
    <glyph glyph-name="afii10083" unicode="&#x441;" 
d="M64 0l-64 64v256l64 64h192l64 -64v-64h-64v64h-192v-256h256l-64 -64h-192z" />
    <glyph glyph-name="afii10084" unicode="&#x442;" 
d="M128 0v320h-128v64h320v-64h-128v-320h-64z" />
    <glyph glyph-name="afii10085" unicode="&#x443;" 
d="M0 -192v64h256v128h-192l-64 64v320h64v-320h192v320h64v-512l-64 -64h-256z" />
    <glyph glyph-name="afii10086" unicode="&#x444;" 
d="M128 128v128h-64v-128h64zM256 128v128h-64v-128h64zM128 0v64h-64l-64 64v128l64 64h64v64h64v-64h64l64 -64v-128l-64 -64h-64v-64h-64z" />
    <glyph glyph-name="afii10087" unicode="&#x445;" 
d="M0 0l112 224l-80 160h64l64 -128l64 128h64l-80 -160l112 -224h-64l-96 192l-96 -192h-64z" />
    <glyph glyph-name="afii10088" unicode="&#x446;" horiz-adv-x="448" 
d="M320 -128v128h-320v384h64v-320h192v320h64v-320h64v-192h-64z" />
    <glyph glyph-name="afii10089" unicode="&#x447;" 
d="M256 0v192h-192l-64 64v128h64v-128h192v128h64v-384h-64z" />
    <glyph glyph-name="afii10090" unicode="&#x448;" 
d="M0 0v384h64v-320h64v320h64v-320h64v320h64v-384h-320z" />
    <glyph glyph-name="afii10091" unicode="&#x449;" horiz-adv-x="448" 
d="M320 -128v128h-320v384h64v-320h64v320h64v-320h64v320h64v-320h64v-192h-64z" />
    <glyph glyph-name="afii10092" unicode="&#x44a;" 
d="M256 64v128h-64v-128h64zM128 0v320h-128v64h192v-128h64l64 -64v-128l-64 -64h-128z" />
    <glyph glyph-name="afii10093" unicode="&#x44b;" 
d="M128 64v128h-64v-128h64zM0 0v384h64v-128h64l64 -64v-128l-64 -64h-128zM224 0v384h64v-384h-64z" />
    <glyph glyph-name="afii10094" unicode="&#x44c;" horiz-adv-x="320" 
d="M192 64v128h-128v-128h128zM0 0v384h64v-128h128l64 -64v-128l-64 -64h-192z" />
    <glyph glyph-name="afii10095" unicode="&#x44d;" 
d="M64 0l-64 64h256v96h-192v64h192v96h-256l64 64h192l64 -64v-256l-64 -64h-192z" />
    <glyph glyph-name="afii10096" unicode="&#x44e;" horiz-adv-x="448" 
d="M320 64v256h-128v-256h128zM0 0v384h64v-160h64v96l64 64h128l64 -64v-256l-64 -64h-128l-64 64v96h-64v-160h-64z" />
    <glyph glyph-name="afii10097" unicode="&#x44f;" 
d="M256 192v128h-192v-128h192zM0 0l64 128l-64 64v128l64 64h256v-384h-64v128h-128l-64 -128h-64z" />
    <glyph glyph-name="uni0450" unicode="&#x450;" 
d="M256 256v64h-192v-64h192zM64 0l-64 64v256l64 64h192l64 -64v-64l-64 -64h-192v-128h256l-64 -64h-192zM128 448l-64 64h64l64 -64h-64z" />
    <glyph glyph-name="afii10071" unicode="&#x451;" 
d="M256 256v64h-192v-64h192zM64 0l-64 64v256l64 64h192l64 -64v-64l-64 -64h-192v-128h256l-64 -64h-192zM64 448v64h64v-64h-64zM192 448v64h64v-64h-64z" />
    <glyph glyph-name="afii10099" unicode="&#x452;" 
d="M192 -64l-64 64h128v256h-192v-256h-64v512h64v-64h128v-64h-128v-64h192l64 -64v-256l-64 -64h-64z" />
    <glyph glyph-name="afii10100" unicode="&#x453;" 
d="M0 0v384h320l-64 -64h-192v-320h-64zM128 448l64 64h64l-64 -64h-64z" />
    <glyph glyph-name="afii10101" unicode="&#x454;" 
d="M64 0l-64 64v256l64 64h192l64 -64h-256v-96h192v-64h-192v-96h256l-64 -64h-192z" />
    <glyph glyph-name="afii10102" unicode="&#x455;" 
d="M64 0l-64 64h256v128h-192l-64 64v64l64 64h192l64 -64h-256v-64h192l64 -64v-128l-64 -64h-192z" />
    <glyph glyph-name="afii10103" unicode="&#x456;" horiz-adv-x="128" 
d="M0 0v384h64v-384h-64zM0 448v64h64v-64h-64z" />
    <glyph glyph-name="afii10104" unicode="&#x457;" horiz-adv-x="192" 
d="M0 0v384h64v-384h-64zM-64 448v64h64v-64h-64zM64 448v64h64v-64h-64z" />
    <glyph glyph-name="afii10105" unicode="&#x458;" horiz-adv-x="256" 
d="M0 -192l-64 64v64h64v-64h128v448h-64v64h128v-512l-64 -64h-128zM128 448v64h64v-64h-64z" />
    <glyph glyph-name="afii10106" unicode="&#x459;" horiz-adv-x="448" 
d="M320 64v128h-64v-128h64zM0 0v64h64v320h192v-128h64l64 -64v-128l-64 -64h-128v320h-64v-256l-64 -64h-64z" />
    <glyph glyph-name="afii10107" unicode="&#x45a;" 
d="M256 64v128h-64v-128h64zM0 0v384h64v-128h64v128h64v-128h64l64 -64v-128l-64 -64h-128v192h-64v-192h-64z" />
    <glyph glyph-name="afii10108" unicode="&#x45b;" 
d="M0 0v512h64v-64h128v-64h-128v-64h192l64 -64v-256h-64v256h-192v-256h-64z" />
    <glyph glyph-name="afii10109" unicode="&#x45c;" 
d="M0 0v384h64v-128h64l128 128h64l-128 -128h64l64 -64v-192h-64v192h-192v-192h-64zM128 448l64 64h64l-64 -64h-64z" />
    <glyph glyph-name="uni045D" unicode="&#x45d;" 
d="M0 0v384h64v-320l160 320h96v-384h-64v320l-160 -320h-96zM128 448l-64 64h64l64 -64h-64z" />
    <glyph glyph-name="afii10110" unicode="&#x45e;" 
d="M0 -192v64h256v128h-192l-64 64v320h64v-320h192v320h64v-512l-64 -64h-256zM128 448l-64 32v64l64 -32h64l64 32v-64l-64 -32h-64z" />
    <glyph glyph-name="afii10193" unicode="&#x45f;" 
d="M128 -128v128h-128v384h64v-320h192v320h64v-384h-128v-128h-64z" />
    <glyph glyph-name="Omegacyrillic" unicode="&#x460;" 
d="M0 0v512h64v-384l64 128h64l64 -128v384h64v-512h-64l-96 192l-96 -192h-64z" />
    <glyph glyph-name="omegacyrillic" unicode="&#x461;" 
d="M0 0v384h64v-256l64 128h64l64 -128v256h64v-384h-64l-96 192l-96 -192h-64z" />
    <glyph glyph-name="afii10146" unicode="&#x462;" 
d="M256 64v192h-128v-192h128zM64 0v384h-64v64h64v64h64v-64h128v-64h-128v-64h128l64 -64v-192l-64 -64h-192z" />
    <glyph glyph-name="afii10194" unicode="&#x463;" 
d="M256 64v64h-128v-64h128zM64 0v256h-64v64h64v64h64v-64h128v-64h-128v-64h128l64 -64v-64l-64 -64h-192z" />
    <glyph glyph-name="Eiotifiedcyrillic" unicode="&#x464;" horiz-adv-x="512" 
d="M0 0v512h64v-224h64v160l64 64h192l64 -64h-256v-160h192v-64h-192v-160h256l-64 -64h-192l-64 64v160h-64v-224h-64z" />
    <glyph glyph-name="eiotifiedcyrillic" unicode="&#x465;" horiz-adv-x="512" 
d="M0 0v384h64v-160h64v96l64 64h192l64 -64h-256v-96h192v-64h-192v-96h256l-64 -64h-192l-64 64v96h-64v-160h-64z" />
    <glyph glyph-name="Yuslittlecyrillic" unicode="&#x466;" 
d="M256 256v128l-64 64h-64l-64 -64v-128h192zM0 0v384l128 128h64l128 -128v-384h-64v192h-64v-192h-64v192h-64v-192h-64z" />
    <glyph glyph-name="yuslittlecyrillic" unicode="&#x467;" 
d="M256 192v64l-64 64h-64l-64 -64v-64h192zM0 0v256l128 128h64l128 -128v-256h-64v128h-64v-128h-64v128h-64v-128h-64z" />
    <glyph glyph-name="Yuslittleiotifiedcyrillic" unicode="&#x468;" horiz-adv-x="512" 
d="M384 256v128l-64 64h-64l-64 -64v-128h192zM0 0v512h64v-256h64v128l128 128h64l128 -128v-384h-64v192h-64v-192h-64v192h-64v-192h-64v192h-64v-192h-64z" />
    <glyph glyph-name="yuslittleiotifiedcyrillic" unicode="&#x469;" horiz-adv-x="512" 
d="M384 192v64l-64 64h-64l-64 -64v-64h192zM0 0v384h64v-192h64v64l128 128h64l128 -128v-256h-64v128h-64v-128h-64v128h-64v-128h-64v128h-64v-128h-64z" />
    <glyph glyph-name="Yusbigcyrillic" unicode="&#x46a;" 
d="M208 288l48 96v64h-192v-64l48 -96h96zM0 0v128l64 128l-64 128v128h320v-128l-64 -128l64 -128v-128h-64v128l-48 96h-16v-224h-64v224h-16l-48 -96v-128h-64z" />
    <glyph glyph-name="yusbigcyrillic" unicode="&#x46b;" 
d="M208 224l48 96h-192l48 -96h96zM0 0v64l64 128l-64 128v64h320v-64l-64 -128l64 -128v-64h-64v64l-48 96h-16v-160h-64v160h-16l-48 -96v-64h-64z" />
    <glyph glyph-name="Yusbigiotifiedcyrillic" unicode="&#x46c;" horiz-adv-x="512" 
d="M336 288l48 96v64h-192v-64l48 -96h96zM0 0v512h64v-224h112l-48 96v128h320v-128l-64 -128l64 -128v-128h-64v128l-48 96h-16v-224h-64v224h-16l-48 -96v-128h-64v128l48 96h-112v-224h-64z" />
    <glyph glyph-name="yusbigiotifiedcyrillic" unicode="&#x46d;" horiz-adv-x="512" 
d="M336 224l48 96h-192l48 -96h96zM0 0v384h64v-160h112l-48 96v64h320v-64l-64 -128l64 -128v-64h-64v64l-48 96h-16v-160h-64v160h-16l-48 -96v-64h-64v64l48 96h-112v-160h-64z" />
    <glyph glyph-name="Ksicyrillic" unicode="&#x46e;" 
d="M64 -128l-64 64v64l64 64h192v192h-192v64h192v128h-192v-64h-64v64l64 64h192l64 -64v-128l-32 -32l32 -32v-192l-64 -64h-192v-64h192l64 -64h-256zM128 576l-64 32v64l64 -32h64l64 32v-64l-64 -32h-64z" />
    <glyph glyph-name="ksicyrillic" unicode="&#x46f;" 
d="M64 -128l-64 64v64l64 64h192v128h-128v64h128v64h-256l64 64h192l64 -64v-64l-32 -32l32 -32v-128l-64 -64h-192v-64h192l64 -64h-256zM128 448l-64 32v64l64 -32h64l64 32v-64l-64 -32h-64z" />
    <glyph glyph-name="Psicyrillic" unicode="&#x470;" 
d="M128 0v224l-64 32l-64 128v128h64v-128l48 -96h16v224h64v-224h16l48 96v128h64v-128l-64 -128l-64 -32v-224h-64z" />
    <glyph glyph-name="psicyrillic" unicode="&#x471;" 
d="M128 0v160l-64 32l-64 128v64h64v-64l48 -96h16v160h64v-160h16l48 96v64h64v-64l-64 -128l-64 -32v-160h-64z" />
    <glyph glyph-name="afii10147" unicode="&#x472;" 
d="M256 64v192l-64 -32l-64 32l-64 -32v-160h192zM192 256l64 32v160h-192v-192l64 32l64 -32v0zM64 0l-64 64v384l64 64h192l64 -64v-384l-64 -64h-192z" />
    <glyph glyph-name="afii10195" unicode="&#x473;" 
d="M256 64v128l-64 -32l-64 32l-64 -32v-96h192zM192 192l64 32v96h-192v-128l64 32l64 -32v0zM64 0l-64 64v256l64 64h192l64 -64v-256l-64 -64h-192z" />
    <glyph glyph-name="afii10148" unicode="&#x474;" 
d="M128 0l-128 256v256h64v-256l96 -192l96 192v256h64v-256l-128 -256h-64z" />
    <glyph glyph-name="afii10196" unicode="&#x475;" 
d="M128 0l-128 256v128h64v-128l96 -192l96 192v128h64v-128l-128 -256h-64z" />
    <glyph glyph-name="afii10050" unicode="&#x490;" 
d="M0 0v512h256v64h64v-64l-64 -64h-192v-448h-64z" />
    <glyph glyph-name="afii10098" unicode="&#x491;" 
d="M0 0v384h256v64h64v-64l-64 -64h-192v-320h-64z" />
    <glyph glyph-name="Ghestrokecyrillic" unicode="&#x492;" 
d="M0 0v256h-64v64h64v192h320l-64 -64h-192v-128h128v-64h-128v-256h-64z" />
    <glyph glyph-name="ghestrokecyrillic" unicode="&#x493;" 
d="M0 0v192h-64v64h64v128h320l-64 -64h-192v-64h128v-64h-128v-192h-64z" />
    <glyph glyph-name="Ghemiddlehookcyrillic" unicode="&#x494;" 
d="M192 -64v64h64v256h-192v-256h-64v512h320l-64 -64h-192v-128h192l64 -64v-256l-64 -64h-64z" />
    <glyph glyph-name="ghemiddlehookcyrillic" unicode="&#x495;" 
d="M192 -64v64h64v128h-192v-128h-64v384h320l-64 -64h-192v-128h192l64 -64v-128l-64 -64h-64z" />
    <glyph glyph-name="Zhedescendercyrillic" unicode="&#x496;" horiz-adv-x="448" 
d="M320 -128v128h-64v128l-48 96h-16v-224h-64v224h-16l-48 -96v-128h-64v128l64 128l-64 128v128h64v-128l48 -96h16v224h64v-224h16l48 96v128h64v-128l-64 -128l64 -128v-64h64v-192h-64z" />
    <glyph glyph-name="zhedescendercyrillic" unicode="&#x497;" horiz-adv-x="448" 
d="M320 -128v128h-64v64l-48 96h-16v-160h-64v160h-16l-48 -96v-64h-64v64l64 128l-64 128v64h64v-64l48 -96h16v160h64v-160h16l48 96v64h64v-64l-64 -128l64 -128h64v-192h-64z" />
    <glyph glyph-name="Zedescendercyrillic" unicode="&#x498;" 
d="M128 -128v128h-64l-64 64v64h64v-64h192v192h-192v64h192v128h-192v-64h-64v64l64 64h192l64 -64v-128l-32 -32l32 -32v-192l-64 -64h-64v-128h-64z" />
    <glyph glyph-name="zedescendercyrillic" unicode="&#x499;" 
d="M128 -128v128h-64l-64 64h256v128h-128v64h128v64h-256l64 64h192l64 -64v-64l-32 -32l32 -32v-128l-64 -64h-64v-128h-64z" />
    <glyph glyph-name="Kadescendercyrillic" unicode="&#x49a;" horiz-adv-x="448" 
d="M320 -128v128h-64v256h-192v-256h-64v512h64v-192h64l192 192v-64l-128 -128h64l64 -64v-192h64v-192h-64z" />
    <glyph glyph-name="kadescendercyrillic" unicode="&#x49b;" horiz-adv-x="448" 
d="M320 -128v128h-64v192h-192v-192h-64v384h64v-128h64l128 128h64l-128 -128h64l64 -64v-128h64v-192h-64z" />
    <glyph glyph-name="Kaverticalstrokecyrillic" unicode="&#x49c;" 
d="M0 0v512h64v-192h32v128h32v-128l192 192v-64l-128 -128h64l64 -64v-256h-64v256h-128v-128h-32v128h-32v-256h-64z" />
    <glyph glyph-name="kaverticalstrokecyrillic" unicode="&#x49d;" 
d="M0 0v384h64v-128h32v128h32v-128l128 128h64l-128 -128h64l64 -64v-192h-64v192h-128v-128h-32v128h-32v-192h-64z" />
    <glyph glyph-name="Kastrokecyrillic" unicode="&#x49e;" 
d="M0 0v448h-64v32h64v32h64v-32h64v-32h-64v-128h64l192 192v-64l-128 -128h64l64 -64v-256h-64v256h-192v-256h-64z" />
    <glyph glyph-name="kastrokecyrillic" unicode="&#x49f;" 
d="M0 0v384h-64v32h64v96h64v-96h64v-32h-64v-128h64l128 128h64l-128 -128h64l64 -64v-192h-64v192h-192v-192h-64z" />
    <glyph glyph-name="Kabashkircyrillic" unicode="&#x4a0;" horiz-adv-x="448" 
d="M64 0v448h-96v64h160v-192h64l192 192v-64l-128 -128h64l64 -64v-256h-64v256h-192v-256h-64z" />
    <glyph glyph-name="kabashkircyrillic" unicode="&#x4a1;" horiz-adv-x="448" 
d="M64 0v320h-96v64h160v-128h64l128 128h64l-128 -128h64l64 -64v-192h-64v192h-192v-192h-64z" />
    <glyph glyph-name="Endescendercyrillic" unicode="&#x4a2;" horiz-adv-x="448" 
d="M320 -128v128h-64v256h-192v-256h-64v512h64v-192h192v192h64v-448h64v-192h-64z" />
    <glyph glyph-name="endescendercyrillic" unicode="&#x4a3;" horiz-adv-x="448" 
d="M320 -128v128h-64v192h-192v-192h-64v384h64v-128h192v128h64v-320h64v-192h-64z" />
    <glyph glyph-name="Enghecyrillic" unicode="&#x4a4;" 
d="M0 0v512h64v-192h128v192h128v-64h-64v-448h-64v256h-128v-256h-64z" />
    <glyph glyph-name="enghecyrillic" unicode="&#x4a5;" 
d="M0 0v384h64v-128h128v128h128v-64h-64v-320h-64v192h-128v-192h-64z" />
    <glyph glyph-name="Pemiddlehookcyrillic" unicode="&#x4a6;" horiz-adv-x="448" 
d="M320 -64v320h-64v-256h-64v448h-128v-448h-64v512h256v-192h64l64 -64v-256l-64 -64v0z" />
    <glyph glyph-name="pemiddlehookcyrillic" unicode="&#x4a7;" 
d="M256 -64v256h-64v-192h-64v320h-64v-320h-64v384h192v-128h64l64 -64v-192l-64 -64v0z" />
    <glyph glyph-name="Haabkhasiancyrillic" unicode="&#x4a8;" 
d="M256 64v192h-64v-192h64zM128 64v192l64 64h64v128h-192v-384h64zM64 0l-64 64v384l64 64h192l64 -64v-384l-64 -64h-192z" />
    <glyph glyph-name="haabkhasiancyrillic" unicode="&#x4a9;" 
d="M256 64v128h-64v-128h64zM128 64v128l64 64h64v64h-192v-256h64zM64 0l-64 64v256l64 64h192l64 -64v-256l-64 -64h-192z" />
    <glyph glyph-name="Esdescendercyrillic" unicode="&#x4aa;" 
d="M128 -128v128h-64l-64 64v384l64 64h192l64 -64v-64h-64v64h-192v-384h256l-64 -64h-64v-128h-64z" />
    <glyph glyph-name="esdescendercyrillic" unicode="&#x4ab;" 
d="M128 -128v128h-64l-64 64v256l64 64h192l64 -64v-64h-64v64h-192v-256h256l-64 -64h-64v-128h-64z" />
    <glyph glyph-name="Tedescendercyrillic" unicode="&#x4ac;" 
d="M192 -128v128h-64v448h-128v64h320v-64h-128v-384h64v-192h-64z" />
    <glyph glyph-name="tedescendercyrillic" unicode="&#x4ad;" 
d="M192 -128v128h-64v320h-128v64h320v-64h-128v-256h64v-192h-64z" />
    <glyph glyph-name="Ustraightcyrillic" unicode="&#x4ae;" 
d="M128 0v256l-128 256h64l96 -192l96 192h64l-128 -256v-256h-64z" />
    <glyph glyph-name="ustraightcyrillic" unicode="&#x4af;" horiz-adv-x="320" 
d="M64 0v192l-96 192h64l64 -128l64 128h64l-96 -192v-192h-64z" />
    <glyph glyph-name="Ustraightstrokecyrillic" unicode="&#x4b0;" 
d="M128 0v128h-64v32h64v96l-128 256h64l96 -192l96 192h64l-128 -256v-96h64v-32h-64v-128h-64z" />
    <glyph glyph-name="ustraightstrokecyrillic" unicode="&#x4b1;" horiz-adv-x="320" 
d="M64 0v128h-64v32h64v32l-96 192h64l64 -128l64 128h64l-96 -192v-32h64v-32h-64v-128h-64z" />
    <glyph glyph-name="Hadescendercyrillic" unicode="&#x4b2;" 
d="M256 -128v128l-96 192l-96 -192h-64l128 256l-128 256h64l96 -192l96 192h64l-128 -256l96 -192h32v-192h-64z" />
    <glyph glyph-name="hadescendercyrillic" unicode="&#x4b3;" 
d="M256 -128v128l-96 192l-96 -192h-64l112 224l-80 160h64l64 -128l64 128h64l-80 -160l80 -160h32v-192h-64z" />
    <glyph glyph-name="Tetsecyrillic" unicode="&#x4b4;" horiz-adv-x="448" 
d="M320 -128v128h-256v448h-64v64h192v-64h-64v-384h128v448h64v-448h64v-192h-64z" />
    <glyph glyph-name="tetsecyrillic" unicode="&#x4b5;" horiz-adv-x="448" 
d="M320 -128v128h-256v320h-64v64h192v-64h-64v-256h128v320h64v-320h64v-192h-64z" />
    <glyph glyph-name="Chedescendercyrillic" unicode="&#x4b6;" horiz-adv-x="448" 
d="M320 -128v128h-64v256h-192l-64 64v192h64v-192h192v192h64v-448h64v-192h-64z" />
    <glyph glyph-name="chedescendercyrillic" unicode="&#x4b7;" horiz-adv-x="448" 
d="M320 -128v128h-64v192h-192l-64 64v128h64v-128h192v128h64v-320h64v-192h-64z" />
    <glyph glyph-name="Cheverticalstrokecyrillic" unicode="&#x4b8;" 
d="M256 0v256h-64v-64h-32v64h-96l-64 64v192h64v-192h96v64h32v-64h64v192h64v-512h-64z" />
    <glyph glyph-name="cheverticalstrokecyrillic" unicode="&#x4b9;" 
d="M256 0v192h-64v-64h-32v64h-96l-64 64v128h64v-128h96v64h32v-64h64v128h64v-384h-64z" />
    <glyph glyph-name="Shhacyrillic" unicode="&#x4ba;" 
d="M0 0v512h64v-192h192l64 -64v-256h-64v256h-192v-256h-64z" />
    <glyph glyph-name="shhacyrillic" unicode="&#x4bb;" 
d="M0 0v384h64v-128h192l64 -64v-192h-64v192h-192v-192h-64z" />
    <glyph glyph-name="Cheabkhasiancyrillic" unicode="&#x4bc;" horiz-adv-x="448" 
d="M320 320v128h-192v-128h192zM128 0l-64 64v192h-64l-64 64h128v128l64 64h192l64 -64v-128l-64 -64h-192v-192h256l-64 -64h-192z" />
    <glyph glyph-name="cheabkhasiancyrillic" unicode="&#x4bd;" horiz-adv-x="448" 
d="M320 256v64h-192v-64h192zM128 0l-64 64v128h-64l-64 64h128v64l64 64h192l64 -64v-64l-64 -64h-192v-128h256l-64 -64h-192z" />
    <glyph glyph-name="Chedescenderabkhasiancyrillic" unicode="&#x4be;" horiz-adv-x="448" 
d="M320 320v128h-192v-128h192zM192 -128v128h-64l-64 64v192h-64l-64 64h128v128l64 64h192l64 -64v-128l-64 -64h-192v-192h256l-64 -64h-64v-128h-64z" />
    <glyph glyph-name="chedescenderabkhasiancyrillic" unicode="&#x4bf;" horiz-adv-x="448" 
d="M320 256v64h-192v-64h192zM192 -128v128h-64l-64 64v128h-64l-64 64h128v64l64 64h192l64 -64v-64l-64 -64h-192v-128h256l-64 -64h-64v-128h-64z" />
    <glyph glyph-name="palochkacyrillic" unicode="&#x4c0;" horiz-adv-x="128" 
d="M0 0v512h64v-512h-64z" />
    <glyph glyph-name="Zhebrevecyrillic" unicode="&#x4c1;" 
d="M0 0v128l64 128l-64 128v128h64v-128l48 -96h16v224h64v-224h16l48 96v128h64v-128l-64 -128l64 -128v-128h-64v128l-48 96h-16v-224h-64v224h-16l-48 -96v-128h-64zM128 576l-64 32v64l64 -32h64l64 32v-64l-64 -32h-64z" />
    <glyph glyph-name="zhebrevecyrillic" unicode="&#x4c2;" 
d="M0 0v64l64 128l-64 128v64h64v-64l48 -96h16v160h64v-160h16l48 96v64h64v-64l-64 -128l64 -128v-64h-64v64l-48 96h-16v-160h-64v160h-16l-48 -96v-64h-64zM128 448l-64 32v64l64 -32h64l64 32v-64l-64 -32h-64z" />
    <glyph glyph-name="Kahookcyrillic" unicode="&#x4c3;" 
d="M192 -64l-64 64h128v256h-192v-256h-64v512h64v-192h64l192 192v-64l-128 -128h64l64 -64v-256l-64 -64h-64z" />
    <glyph glyph-name="kahookcyrillic" unicode="&#x4c4;" 
d="M192 -64l-64 64h128v192h-192v-192h-64v384h64v-128h64l128 128h64l-128 -128h64l64 -64v-192l-64 -64h-64z" />
    <glyph glyph-name="Enhookcyrillic" unicode="&#x4c7;" 
d="M192 -64l-64 64h128v256h-192v-256h-64v512h64v-192h192v192h64v-512l-64 -64h-64z" />
    <glyph glyph-name="enhookcyrillic" unicode="&#x4c8;" 
d="M192 -64l-64 64h128v192h-192v-192h-64v384h64v-128h192v128h64v-384l-64 -64h-64z" />
    <glyph glyph-name="Chekhakassiancyrillic" unicode="&#x4cb;" 
d="M192 -128v192h64v192h-192l-64 64v192h64v-192h192v192h64v-512h-64v-128h-64z" />
    <glyph glyph-name="chekhakassiancyrillic" unicode="&#x4cc;" 
d="M192 -128v192h64v128h-192l-64 64v128h64v-128h192v128h64v-384h-64v-128h-64z" />
    <glyph glyph-name="Abrevecyrillic" unicode="&#x4d0;" 
d="M256 320v128h-192v-128h192zM0 0v448l64 64h192l64 -64v-448h-64v256h-192v-256h-64zM128 576l-64 32v64l64 -32h64l64 32v-64l-64 -32h-64z" />
    <glyph glyph-name="abrevecyrillic" unicode="&#x4d1;" 
d="M256 64v128h-192v-128h192zM64 0l-64 64v128l64 64h192v64h-192v64h192l64 -64v-320h-256zM128 448l-64 32v64l64 -32h64l64 32v-64l-64 -32h-64z" />
    <glyph glyph-name="Adieresiscyrillic" unicode="&#x4d2;" 
d="M256 320v128h-192v-128h192zM0 0v448l64 64h192l64 -64v-448h-64v256h-192v-256h-64zM64 576v64h64v-64h-64zM192 576v64h64v-64h-64z" />
    <glyph glyph-name="adieresiscyrillic" unicode="&#x4d3;" 
d="M256 64v128h-192v-128h192zM64 0l-64 64v128l64 64h192v64h-192v64h192l64 -64v-320h-256zM64 448v64h64v-64h-64zM192 448v64h64v-64h-64z" />
    <glyph glyph-name="Aiecyrillic" unicode="&#x4d4;" 
d="M128 320v128h-64v-128h64zM0 0v448l64 64h256v-64h-128v-128h96v-64h-96v-192h128v-64h-192v256h-64v-256h-64z" />
    <glyph glyph-name="aiecyrillic" unicode="&#x4d5;" 
d="M128 64v128h-64v-128h64zM256 256v64h-64v-64h64zM64 0l-64 64v128l64 64h64v64h-96v64h224l64 -64v-64l-64 -64h-64v-128h128l-64 -64h-192z" />
    <glyph glyph-name="Iebrevecyrillic" unicode="&#x4d6;" 
d="M0 0v512h320v-64h-256v-128h128v-64h-128v-192h256v-64h-320zM128 576l-64 32v64l64 -32h64l64 32v-64l-64 -32h-64z" />
    <glyph glyph-name="iebrevecyrillic" unicode="&#x4d7;" 
d="M256 256v64h-192v-64h192zM64 0l-64 64v256l64 64h192l64 -64v-64l-64 -64h-192v-128h256l-64 -64h-192zM128 448l-64 32v64l64 -32h64l64 32v-64l-64 -32h-64z" />
    <glyph glyph-name="Schwacyrillic" unicode="&#x4d8;" 
d="M256 64v192h-192v-192h192zM64 0l-64 64v192l64 64h192v128h-256l64 64h192l64 -64v-384l-64 -64h-192z" />
    <glyph glyph-name="afii10846" unicode="&#x4d9;" 
d="M256 64v128h-192v-128h192zM64 0l-64 64v128l64 64h192v64h-256l64 64h192l64 -64v-256l-64 -64h-192z" />
    <glyph glyph-name="Schwadieresiscyrillic" unicode="&#x4da;" 
d="M256 64v192h-192v-192h192zM64 0l-64 64v192l64 64h192v128h-256l64 64h192l64 -64v-384l-64 -64h-192zM64 576v64h64v-64h-64zM192 576v64h64v-64h-64z" />
    <glyph glyph-name="schwadieresiscyrillic" unicode="&#x4db;" 
d="M256 64v128h-192v-128h192zM64 0l-64 64v128l64 64h192v64h-256l64 64h192l64 -64v-256l-64 -64h-192zM64 448v64h64v-64h-64zM192 448v64h64v-64h-64z" />
    <glyph glyph-name="Zhedieresiscyrillic" unicode="&#x4dc;" 
d="M0 0v128l64 128l-64 128v128h64v-128l48 -96h16v224h64v-224h16l48 96v128h64v-128l-64 -128l64 -128v-128h-64v128l-48 96h-16v-224h-64v224h-16l-48 -96v-128h-64zM64 576v64h64v-64h-64zM192 576v64h64v-64h-64z" />
    <glyph glyph-name="zhedieresiscyrillic" unicode="&#x4dd;" 
d="M0 0v64l64 128l-64 128v64h64v-64l48 -96h16v160h64v-160h16l48 96v64h64v-64l-64 -128l64 -128v-64h-64v64l-48 96h-16v-160h-64v160h-16l-48 -96v-64h-64zM64 448v64h64v-64h-64zM192 448v64h64v-64h-64z" />
    <glyph glyph-name="Zedieresiscyrillic" unicode="&#x4de;" 
d="M64 0l-64 64v64h64v-64h192v192h-192v64h192v128h-192v-64h-64v64l64 64h192l64 -64v-128l-32 -32l32 -32v-192l-64 -64h-192zM64 576v64h64v-64h-64zM192 576v64h64v-64h-64z" />
    <glyph glyph-name="zedieresiscyrillic" unicode="&#x4df;" 
d="M64 0l-64 64v64h64v-64h192v128h-128v64h128v64h-192v-64h-64v64l64 64h192l64 -64v-64l-32 -32l32 -32v-128l-64 -64h-192zM64 448v64h64v-64h-64zM192 448v64h64v-64h-64z" />
    <glyph glyph-name="Dzeabkhasiancyrillic" unicode="&#x4e0;" 
d="M64 0l-64 64v64h64v-64h192v192h-192l192 192h-256v64h320v-64l-128 -128h64l64 -64v-192l-64 -64h-192z" />
    <glyph glyph-name="dzeabkhasiancyrillic" unicode="&#x4e1;" 
d="M64 0l-64 64h256v128h-192l128 128h-192v64h320l-128 -128h64l64 -64v-128l-64 -64h-192z" />
    <glyph glyph-name="Imacroncyrillic" unicode="&#x4e2;" 
d="M0 0v512h64v-384l192 384h64v-512h-64v384l-192 -384h-64zM0 576v64h320v-64h-320z" />
    <glyph glyph-name="imacroncyrillic" unicode="&#x4e3;" 
d="M0 0v384h64v-320l160 320h96v-384h-64v320l-160 -320h-96zM0 448v64h320v-64h-320z" />
    <glyph glyph-name="Idieresiscyrillic" unicode="&#x4e4;" 
d="M0 0v512h64v-384l192 384h64v-512h-64v384l-192 -384h-64zM64 576v64h64v-64h-64zM192 576v64h64v-64h-64z" />
    <glyph glyph-name="idieresiscyrillic" unicode="&#x4e5;" 
d="M0 0v384h64v-320l160 320h96v-384h-64v320l-160 -320h-96zM64 448v64h64v-64h-64zM192 448v64h64v-64h-64z" />
    <glyph glyph-name="Odieresiscyrillic" unicode="&#x4e6;" 
d="M256 64v384h-192v-384h192zM64 0l-64 64v384l64 64h192l64 -64v-384l-64 -64h-192zM64 576v64h64v-64h-64zM192 576v64h64v-64h-64z" />
    <glyph glyph-name="odieresiscyrillic" unicode="&#x4e7;" 
d="M256 64v256h-192v-256h192zM64 0l-64 64v256l64 64h192l64 -64v-256l-64 -64h-192zM64 448v64h64v-64h-64zM192 448v64h64v-64h-64z" />
    <glyph glyph-name="Obarredcyrillic" unicode="&#x4e8;" 
d="M256 64v160h-192v-160h192zM256 288v160h-192v-160h192zM64 0l-64 64v384l64 64h192l64 -64v-384l-64 -64h-192z" />
    <glyph glyph-name="obarredcyrillic" unicode="&#x4e9;" 
d="M256 64v96h-192v-96h192zM256 224v96h-192v-96h192zM64 0l-64 64v256l64 64h192l64 -64v-256l-64 -64h-192z" />
    <glyph glyph-name="Obarreddieresiscyrillic" unicode="&#x4ea;" 
d="M256 64v160h-192v-160h192zM256 288v160h-192v-160h192zM64 0l-64 64v384l64 64h192l64 -64v-384l-64 -64h-192zM64 576v64h64v-64h-64zM192 576v64h64v-64h-64z" />
    <glyph glyph-name="obarreddieresiscyrillic" unicode="&#x4eb;" 
d="M256 64v96h-192v-96h192zM256 224v96h-192v-96h192zM64 0l-64 64v256l64 64h192l64 -64v-256l-64 -64h-192zM64 448v64h64v-64h-64zM192 448v64h64v-64h-64z" />
    <glyph glyph-name="Umacroncyrillic" unicode="&#x4ee;" 
d="M0 0v64h256v128h-192l-64 64v256h64v-256h192v256h64v-448l-64 -64h-256zM0 576v64h320v-64h-320z" />
    <glyph glyph-name="umacroncyrillic" unicode="&#x4ef;" 
d="M0 -192v64h256v128h-192l-64 64v320h64v-320h192v320h64v-512l-64 -64h-256zM0 448v64h320v-64h-320z" />
    <glyph glyph-name="Udieresiscyrillic" unicode="&#x4f0;" 
d="M0 0v64h256v128h-192l-64 64v256h64v-256h192v256h64v-448l-64 -64h-256zM64 576v64h64v-64h-64zM192 576v64h64v-64h-64z" />
    <glyph glyph-name="udieresiscyrillic" unicode="&#x4f1;" 
d="M0 -192v64h256v128h-192l-64 64v320h64v-320h192v320h64v-512l-64 -64h-256zM64 448v64h64v-64h-64zM192 448v64h64v-64h-64z" />
    <glyph glyph-name="Uhungarumlautcyrillic" unicode="&#x4f2;" 
d="M0 0v64h256v128h-192l-64 64v256h64v-256h192v256h64v-448l-64 -64h-256zM64 576l64 64h64l-64 -64h-64zM192 576l64 64h64l-64 -64h-64z" />
    <glyph glyph-name="uhungarumlautcyrillic" unicode="&#x4f3;" 
d="M0 -192v64h256v128h-192l-64 64v320h64v-320h192v320h64v-512l-64 -64h-256zM64 448l64 64h64l-64 -64h-64zM192 448l64 64h64l-64 -64h-64z" />
    <glyph glyph-name="Chedieresiscyrillic" unicode="&#x4f4;" 
d="M256 0v256h-192l-64 64v192h64v-192h192v192h64v-512h-64zM64 576v64h64v-64h-64zM192 576v64h64v-64h-64z" />
    <glyph glyph-name="chedieresiscyrillic" unicode="&#x4f5;" 
d="M256 0v192h-192l-64 64v128h64v-128h192v128h64v-384h-64zM64 448v64h64v-64h-64zM192 448v64h64v-64h-64z" />
    <glyph glyph-name="Yerudieresiscyrillic" unicode="&#x4f8;" 
d="M128 64v192h-64v-192h64zM0 0v512h64v-192h64l64 -64v-192l-64 -64h-128zM224 0v512h64v-512h-64zM32 576v64h64v-64h-64zM160 576v64h64v-64h-64z" />
    <glyph glyph-name="yerudieresiscyrillic" unicode="&#x4f9;" 
d="M128 64v128h-64v-128h64zM0 0v384h64v-128h64l64 -64v-128l-64 -64h-128zM224 0v384h64v-384h-64zM32 448v64h64v-64h-64zM160 448v64h64v-64h-64z" />
    <glyph glyph-name="emdash" unicode="&#x2014;" 
d="M0 256v64h320v-64h-320z" />
    <glyph glyph-name="quoteleft" unicode="&#x2018;" horiz-adv-x="128" 
d="M32 384l-32 64v64h64v-128h-32z" />
    <glyph glyph-name="quoteright" unicode="&#x2019;" horiz-adv-x="128" 
d="M0 384v128h64v-64l-32 -64h-32z" />
    <glyph glyph-name="quotedblleft" unicode="&#x201c;" horiz-adv-x="256" 
d="M32 384l-32 64v64h64v-128h-32zM160 384l-32 64v64h64v-128h-32z" />
    <glyph glyph-name="quotedblright" unicode="&#x201d;" horiz-adv-x="256" 
d="M0 384v128h64v-64l-32 -64h-32zM128 384v128h64v-64l-32 -64h-32z" />
    <glyph glyph-name="dagger" unicode="&#x2020;" horiz-adv-x="192" 
d="M32 192v224h-32v32h32v64h32v-64h32v-32h-32v-224h-32z" />
    <glyph glyph-name="bullet" unicode="&#x2022;" horiz-adv-x="192" 
d="M64 192q-27 0 -46 18q-18 19 -18 46q0 26 18 45q19 19 46 19q26 0 45 -19t19 -45q0 -27 -19 -46q-19 -18 -45 -18v0z" />
    <glyph glyph-name="guilsinglleft" unicode="&#x2039;" horiz-adv-x="192" 
d="M64 64l-64 128l64 128h64l-64 -128l64 -128h-64z" />
    <glyph glyph-name="guilsinglright" unicode="&#x203a;" horiz-adv-x="192" 
d="M0 64l64 128l-64 128h64l64 -128l-64 -128h-64z" />
    <glyph glyph-name="Euro" unicode="&#x20ac;" 
d="M128 0l-64 64v96h-64v64h64v64h-64v64h64v96l64 64h128l64 -64h-192v-96h64v-64h-64v-64h64v-64h-64v-96h192l-64 -64h-128z" />
    <glyph glyph-name="trademark" unicode="&#x2122;" 
d="M64 0v64h64v-64h-64zM192 0v64h64v-64h-64zM0 64v64h64v-64h-64zM128 64v64h64v-64h-64zM256 64v64h64v-64h-64zM64 128v64h64v-64h-64zM192 128v64h64v-64h-64zM0 192v64h64v-64h-64zM128 192v64h64v-64h-64zM256 192v64h64v-64h-64zM64 256v64h64v-64h-64zM192 256v64
h64v-64h-64zM0 320v64h64v-64h-64zM128 320v64h64v-64h-64zM256 320v64h64v-64h-64zM64 384v64h64v-64h-64zM192 384v64h64v-64h-64zM0 448v64h64v-64h-64zM128 448v64h64v-64h-64zM256 448v64h64v-64h-64z" />
  </font>
</defs>
</svg>
